<?xml version="1.0" standalone="no"?><!DOCTYPE svg PUBLIC "-//W3C//DTD SVG 1.1//EN" "http://www.w3.org/Graphics/SVG/1.1/DTD/svg11.dtd"><svg t="1507617880288" class="icon" style="" viewBox="0 0 1024 1024" version="1.1" xmlns="http://www.w3.org/2000/svg" p-id="2411" xmlns:xlink="http://www.w3.org/1999/xlink" width="180" height="180"><defs><style type="text/css"></style></defs><path d="M476.9 657.5c-4.2 0-8.5-1.5-11.9-4.5L320.7 526.7c-7.5-6.6-8.3-18-1.7-25.5 6.6-7.5 18-8.3 25.5-1.7l132.2 115.6 222.6-205.5c7.3-6.8 18.8-6.3 25.5 1 6.8 7.3 6.3 18.7-1 25.5L489.2 652.7c-3.5 3.2-7.9 4.8-12.3 4.8z" fill="#029c7e" p-id="2412"></path><path d="M837.8 928.1H188.2c-49.7 0-90.2-40.5-90.2-90.2V188.4c0-49.7 40.5-90.2 90.2-90.2h649.6c49.7 0 90.2 40.5 90.2 90.2V838c0 49.7-40.5 90.1-90.2 90.1zM188.2 134.2c-29.8 0-54.1 24.3-54.1 54.1v649.6c0 29.8 24.3 54.1 54.1 54.1h649.6c29.8 0 54.1-24.3 54.1-54.1V188.4c0-29.8-24.3-54.1-54.1-54.1H188.2z" fill="#029c7e" p-id="2413"></path><path d="M116 260.5h790.9v18H116z" fill="#029c7e" p-id="2414"></path></svg>