<?xml version="1.0" standalone="no"?><!DOCTYPE svg PUBLIC "-//W3C//DTD SVG 1.1//EN" "http://www.w3.org/Graphics/SVG/1.1/DTD/svg11.dtd"><svg t="1523498425274" class="icon" style="" viewBox="0 0 1024 1024" version="1.1" xmlns="http://www.w3.org/2000/svg" p-id="2522" xmlns:xlink="http://www.w3.org/1999/xlink" width="200" height="200"><defs><style type="text/css"></style></defs><path d="M1002.666667 413.866667c-12.8 0-21.333333 8.533333-21.333334 21.333333V832c0 83.2-66.133333 149.333333-149.333333 149.333333H192c-83.2 0-149.333333-66.133333-149.333333-149.333333V192c0-83.2 66.133333-149.333333 149.333333-149.333333h413.866667c12.8 0 21.333333-8.533333 21.333333-21.333334s-8.533333-21.333333-21.333333-21.333333H192C85.333333 0 0 85.333333 0 192v640c0 106.666667 85.333333 192 192 192h640c106.666667 0 192-85.333333 192-192V435.2c0-10.666667-8.533333-21.333333-21.333333-21.333333z" p-id="2523" fill="#ffffff"></path><path d="M398.933333 785.066667c8.533333 8.533333 21.333333 8.533333 29.866667 0L851.2 362.666667l2.133333-2.133334c8.533333-8.533333 6.4-21.333333-2.133333-29.866666-8.533333-8.533333-21.333333-6.4-29.866667 2.133333L398.933333 755.2c-8.533333 8.533333-8.533333 21.333333 0 29.866667zM957.866667 256l29.866666-29.866667c8.533333-8.533333 8.533333-21.333333 0-29.866666-8.533333-8.533333-21.333333-8.533333-29.866666 0l-29.866667 29.866666c-6.4 8.533333-6.4 21.333333 0 27.733334 6.4 10.666667 21.333333 10.666667 29.866667 2.133333zM320 618.666667c12.8 0 21.333333-8.533333 21.333333-21.333334v-128h85.333334c12.8 0 21.333333-8.533333 21.333333-21.333333s-8.533333-21.333333-21.333333-21.333333h-85.333334v-64h128c12.8 0 21.333333-8.533333 21.333334-21.333334s-8.533333-21.333333-21.333334-21.333333h-98.133333l72.533333-128c6.4-10.666667 2.133333-23.466667-8.533333-29.866667-8.533333-4.266667-21.333333 0-27.733333 8.533334l-85.333334 147.2h-4.266666l-85.333334-147.2c-6.4-8.533333-19.2-12.8-29.866666-6.4-10.666667 4.266667-12.8 19.2-8.533334 27.733333l72.533334 128H170.666667c-12.8 0-21.333333 8.533333-21.333334 21.333333s8.533333 21.333333 21.333334 21.333334h128v64h-85.333334c-12.8 0-21.333333 8.533333-21.333333 21.333333s8.533333 21.333333 21.333333 21.333333h85.333334v128c0 12.8 8.533333 21.333333 21.333333 21.333334z" p-id="2524" fill="#ffffff"></path></svg>