<?xml version="1.0" standalone="no"?><!DOCTYPE svg PUBLIC "-//W3C//DTD SVG 1.1//EN" "http://www.w3.org/Graphics/SVG/1.1/DTD/svg11.dtd"><svg t="1508313270111" class="icon" style="" viewBox="0 0 1024 1024" version="1.1" xmlns="http://www.w3.org/2000/svg" p-id="2514" xmlns:xlink="http://www.w3.org/1999/xlink" width="20" height="20"><defs><style type="text/css"></style></defs><path d="M275.583522 814.634622l333.069795 0c10.737552 0 19.442818-8.705266 19.442818-19.442818s-8.705266-19.442818-19.442818-19.442818L275.583522 775.748986c-10.738575 0-19.442818 8.705266-19.442818 19.442818S264.844947 814.634622 275.583522 814.634622z" p-id="2515" fill="#00b390"></path><path d="M275.583522 392.21894l333.069795 0c10.737552 0 19.442818-8.704243 19.442818-19.442818s-8.705266-19.442818-19.442818-19.442818L275.583522 353.333304c-10.738575 0-19.442818 8.704243-19.442818 19.442818S264.844947 392.21894 275.583522 392.21894z" p-id="2516" fill="#00b390"></path><path d="M275.583522 533.024849l333.069795 0c10.737552 0 19.442818-8.705266 19.442818-19.442818s-8.705266-19.442818-19.442818-19.442818L275.583522 494.139214c-10.738575 0-19.442818 8.704243-19.442818 19.442818S264.844947 533.024849 275.583522 533.024849z" p-id="2517" fill="#00b390"></path><path d="M275.583522 673.829735l333.069795 0c10.737552 0 19.442818-8.705266 19.442818-19.442818s-8.705266-19.442818-19.442818-19.442818L275.583522 634.9441c-10.738575 0-19.442818 8.705266-19.442818 19.442818S264.844947 673.829735 275.583522 673.829735z" p-id="2518" fill="#00b390"></path><path d="M850.196559 80.104409l-535.588231 0c-25.306362 0-45.896306 20.588921-45.896306 45.895283l0 79.83835L148.465356 205.838042c-15.954367 0-29.006637 13.053294-29.006637 29.007661l0 695.612854c0 15.954367 13.053294 29.007661 29.006637 29.007661l587.306126 0c15.954367 0 29.007661-13.053294 29.007661-29.007661L764.779144 806.253744l85.418438 0c25.306362 0 45.896306-20.588921 45.896306-45.896306L896.093888 125.999692C896.092865 100.692307 875.502921 80.104409 850.196559 80.104409zM725.892485 920.579559 158.343331 920.579559 158.343331 244.723677l567.549154 0L725.892485 920.579559zM857.207229 760.357438c0 3.800559-3.211135 7.010671-7.010671 7.010671l-85.418438 0L764.77812 234.844679c0-15.954367-13.053294-29.007661-29.007661-29.007661L307.59868 205.837019l0-79.83835c0-3.799536 3.210112-7.009647 7.010671-7.009647l535.588231 0c3.799536 0 7.010671 3.210112 7.010671 7.009647L857.208253 760.357438z" p-id="2519" fill="#00b390"></path></svg>