<?xml version="1.0" encoding="utf-8"?>
<!-- Generator: Adobe Illustrator 21.0.0, SVG Export Plug-In . SVG Version: 6.00 Build 0)  -->
<svg version="1.1" id="Capa_1" xmlns="http://www.w3.org/2000/svg" xmlns:xlink="http://www.w3.org/1999/xlink" x="0px" y="0px"
	 viewBox="0 0 512 512" style="enable-background:new 0 0 512 512;" xml:space="preserve">
<style type="text/css">
	.st0{fill:#E14C46;}
</style>
<g>
	<g>
		<g>
			<path class="st0" d="M413.3,155.8c0-4.4,3.6-8,8-8s8,3.6,8,8v306.9c0,13.5-5.6,25.9-14.5,34.8c-8.9,8.9-21.3,14.5-34.8,14.5H132
				c-13.5,0-25.9-5.6-34.8-14.5c-8.9-8.9-14.5-21.3-14.5-34.8V155.8c0-4.4,3.6-8,8-8c4.4,0,8,3.6,8,8v306.9c0,9.1,3.8,17.5,9.8,23.5
				c6,6,14.4,9.8,23.5,9.8h248c9.1,0,17.5-3.8,23.5-9.8c6-6,9.8-14.4,9.8-23.5L413.3,155.8L413.3,155.8z"/>
			<path class="st0" d="M196.3,442c0,4.4-3.6,8-8,8s-8-3.6-8-8V157.8c0-4.4,3.6-8,8-8s8,3.6,8,8V442z"/>
			<path class="st0" d="M264,442c0,4.4-3.6,8-8,8c-4.4,0-8-3.6-8-8V157.8c0-4.4,3.6-8,8-8c4.4,0,8,3.6,8,8V442z"/>
			<path class="st0" d="M331.7,442c0,4.4-3.6,8-8,8c-4.4,0-8-3.6-8-8V157.8c0-4.4,3.6-8,8-8c4.4,0,8,3.6,8,8V442L331.7,442z"/>
			<path class="st0" d="M191.7,49.3c0,4.4-3.6,8-8,8c-4.4,0-8-3.6-8-8c0-13.6,5.5-25.9,14.5-34.8C199.1,5.5,211.4,0,225,0h62
				c13.6,0,25.9,5.6,34.8,14.5c8.9,8.9,14.5,21.3,14.5,34.8c0,4.4-3.6,8-8,8s-8-3.6-8-8c0-9.1-3.8-17.5-9.8-23.5
				c-6-6-14.4-9.8-23.5-9.8h-62c-9.1,0-17.5,3.8-23.5,9.8C195.4,31.8,191.7,40.2,191.7,49.3z"/>
			<path class="st0" d="M70,72.3h372c7.8,0,15,3.2,20.2,8.4l0,0c5.2,5.2,8.4,12.4,8.4,20.2v20.7c0,4.4-3.6,8-8,8h-0.2H49.3
				c-4.4,0-8-3.6-8-8v-0.2V101c0-7.8,3.2-15,8.4-20.2l0,0C55,75.6,62.2,72.3,70,72.3L70,72.3z M442,88.3H70c-3.5,0-6.7,1.4-8.9,3.7
				l0,0c-2.3,2.3-3.7,5.4-3.7,8.9v12.7h397.3V101c0-3.5-1.4-6.7-3.7-8.9l0,0C448.7,89.8,445.5,88.3,442,88.3z"/>
		</g>
	</g>
</g>
</svg>
