<?xml version="1.0" encoding="utf-8"?>
<!-- Generator: Adobe Illustrator 21.1.0, SVG Export Plug-In . SVG Version: 6.00 Build 0)  -->
<svg version="1.1" id="图层_1" xmlns="http://www.w3.org/2000/svg" xmlns:xlink="http://www.w3.org/1999/xlink" x="0px" y="0px"
	 viewBox="0 0 180 180" style="enable-background:new 0 0 180 180;" xml:space="preserve">
<style type="text/css">
	.st0{fill:#00B390;}
</style>
<path class="st0" d="M90,180c49.9,0,90-40.1,90-90S139.9,0,90,0S0,40.1,0,90S40.1,180,90,180z M90,7.5c45.4,0,82.5,37.1,82.5,82.5
	s-37.1,82.5-82.5,82.5S7.5,135.4,7.5,90S44.6,7.5,90,7.5L90,7.5z M55.1,130.1L90,95.6l34.9,34.5c1.5,1.5,3.8,1.5,5.2,0
	s1.5-3.8,0-5.2L92.6,87.8c-1.5-1.5-3.7-1.5-5.2,0l-37.5,37.1c-1.5,1.5-1.5,3.7,0,5.2S53.6,131.6,55.1,130.1L55.1,130.1z M55.1,77.2
	L90,42.8l34.9,34.5c1.5,1.5,3.8,1.5,5.2,0s1.5-3.7,0-5.2L92.6,34.9c-1.5-1.5-3.7-1.5-5.2,0L49.9,72c-1.5,1.5-1.5,3.7,0,5.2
	S53.6,78.8,55.1,77.2L55.1,77.2z"/>
</svg>
