<?xml version="1.0" encoding="utf-8"?>
<!-- Generator: Adobe Illustrator 21.1.0, SVG Export Plug-In . SVG Version: 6.00 Build 0)  -->
<svg version="1.1" id="图层_1" xmlns="http://www.w3.org/2000/svg" xmlns:xlink="http://www.w3.org/1999/xlink" x="0px" y="0px"
	 viewBox="0 0 180 180" style="enable-background:new 0 0 180 180;" xml:space="preserve">
<style type="text/css">
	.st0{fill:#029C7E;}
</style>
<path class="st0" d="M180,90c0-49.9-40.1-90-90-90C40.1,0,0,40.1,0,90c0,49.9,40.1,90,90,90S180,139.9,180,90z M90,7.5
	c45.4,0,82.5,37.1,82.5,82.5s-37.1,82.5-82.5,82.5S7.5,135.4,7.5,90S44.6,7.5,90,7.5L90,7.5z M124.9,130.1c1.5,1.5,3.7,1.5,5.2,0
	s1.5-3.8,0-5.2L92.6,87.8c-1.5-1.5-3.8-1.5-5.2,0l-37.5,37.1c-1.5,1.5-1.5,3.8,0,5.2c1.5,1.5,3.8,1.5,5.2,0L90,95.6L124.9,130.1
	L124.9,130.1z M124.9,77.2c1.5,1.5,3.7,1.5,5.2,0s1.5-3.7,0-5.2L92.6,34.9c-1.5-1.5-3.8-1.5-5.2,0L49.9,72c-1.5,1.5-1.5,3.7,0,5.2
	c1.5,1.5,3.8,1.5,5.2,0L90,42.8L124.9,77.2L124.9,77.2z"/>
</svg>
