<?xml version="1.0" encoding="utf-8"?>
<!-- Generator: Adobe Illustrator 21.0.0, SVG Export Plug-In . SVG Version: 6.00 Build 0)  -->
<svg version="1.1" id="Capa_1" xmlns="http://www.w3.org/2000/svg" xmlns:xlink="http://www.w3.org/1999/xlink" x="0px" y="0px"
	 viewBox="0 0 512 512" style="enable-background:new 0 0 512 512;" xml:space="preserve">
<style type="text/css">
	.st0{fill:#010101;}
</style>
<g>
	<g>
		<path class="st0" d="M256,512c68.4,0,132.7-26.6,181-75c48.4-48.4,75-112.6,75-181s-26.6-132.7-75-181C388.7,26.6,324.4,0,256,0
			S123.3,26.6,75,75C26.6,123.3,0,187.6,0,256s26.6,132.7,75,181C123.3,485.4,187.6,512,256,512z M425.7,86.3
			C471,131.6,496,191.9,496,256c0,61.4-23,119.3-64.8,163.9L92.1,80.8C136.7,39,194.6,16,256,16C320.1,16,380.4,41,425.7,86.3z
			 M80.8,92.1l339.1,339.1C375.3,473,317.4,496,256,496c-64.1,0-124.4-25-169.7-70.3C41,380.4,16,320.1,16,256
			C16,194.6,39,136.7,80.8,92.1z"/>
	</g>
</g>
</svg>
