<?xml version="1.0" encoding="utf-8"?>
<!-- Generator: Adobe Illustrator 19.0.0, SVG Export Plug-In . SVG Version: 6.00 Build 0)  -->
<svg version="1.1" id="图层_1" xmlns="http://www.w3.org/2000/svg" xmlns:xlink="http://www.w3.org/1999/xlink" x="0px" y="0px"
	 viewBox="-582 285 200 200" style="enable-background:new -582 285 200 200;" xml:space="preserve">
<style type="text/css">
	.st0{fill:#00B390;}
</style>
<path class="st0" d="M-417.3,482.1h-129.4c-8.2,0-14.7-6.5-14.7-14.7V302.6c0-8.2,6.5-14.7,14.7-14.7h90.6l53.5,53.5v125.9
	C-402.6,475.6-409.1,482.1-417.3,482.1z M-546.7,293.8c-5,0-8.8,3.8-8.8,8.8v164.7c0,5,3.8,8.8,8.8,8.8h129.4c5,0,8.8-3.8,8.8-8.8
	V343.8l-50-50H-546.7z"/>
<path class="st0" d="M-405.5,345.3h-38.2c-8.2,0-14.7-6.5-14.7-14.7v-38.2h5.9v38.2c0,5,3.8,8.8,8.8,8.8h38.2V345.3z"/>
<rect x="-489.4" y="351.6" transform="matrix(0.7071 0.7071 -0.7071 0.7071 146.0917 463.7657)" class="st0" width="5.3" height="113.3"/>
<rect x="-487.5" y="349.8" transform="matrix(-0.7071 0.7071 -0.7071 -0.7071 -540.4472 1036.6106)" class="st0" width="5.3" height="113.3"/>
</svg>
