<?xml version="1.0" encoding="utf-8"?>
<!-- Generator: Adobe Illustrator 21.1.0, SVG Export Plug-In . SVG Version: 6.00 Build 0)  -->
<svg version="1.1" id="图层_1" xmlns="http://www.w3.org/2000/svg" xmlns:xlink="http://www.w3.org/1999/xlink" x="0px" y="0px"
	 viewBox="0 0 396.9 396.9" style="enable-background:new 0 0 396.9 396.9;" xml:space="preserve">
<style type="text/css">
	.st0{fill:#E50011;}
	.st1{fill:#FFFFFF;}
</style>
<circle class="st0" cx="198.4" cy="198.4" r="198.4"/>
<g>
	<path class="st1" d="M237.5,263.5c-8.4-1.1-15.7-2.4-21.7-3.9c5.6-3,10.9-7.1,15.8-12.5c0.2-0.2,0.3-0.5,0.3-0.7v-6.1
		c0-0.6-0.5-1.1-1.2-1.1h-33.2l0.5-0.7c0.7-0.8,1.1-1.4,1.3-1.8c0.2-0.3,0.2-0.8,0-1.1s-0.6-0.5-1-0.5h-10.9c-0.4,0-0.8,0.2-1,0.5
		c-3.7,5.6-9.6,9.6-17.8,11.9c-0.5,0.1-0.8,0.6-0.8,1.1v4.4c0,0.3,0.1,0.6,0.4,0.9c0.3,0.2,0.6,0.3,0.9,0.3c3.6-0.5,6.9-1.2,9.8-2.1
		c3.4,2.8,7,5.3,10.8,7.5c-6.7,1.7-14.2,3.1-22.2,4.2c-0.6,0.1-1,0.6-1,1.1v5c0,0.3,0.1,0.6,0.4,0.8c0.3,0.2,0.6,0.3,0.9,0.3
		c8.8-1,16.6-2.1,23.2-3.4c0,0,0,0,0,0.1v4.4h-19.4c-0.6,0-1.2,0.5-1.2,1.1v5.8c0,0.6,0.5,1.1,1.2,1.1h18.2
		c-1.8,6-8.8,8.9-20.9,11.9c-0.5,0.1-0.9,0.6-0.9,1.1v7.2c0,0.3,0.2,0.7,0.4,0.9c0.2,0.2,0.5,0.3,0.7,0.3c0.1,0,0.1,0,0.2,0
		c20.2-3.7,31.2-10.8,32.9-21.2H219v9.2c0.1,0.9-0.1,1.5-0.5,1.9c-0.6,0.6-1.9,0.8-2.9,0.8H209c-0.6,0-1.2,0.5-1.2,1.1v5.8
		c0,0.6,0.5,1.1,1.2,1.1h10.8h0.6c3.5,0,6.2-0.9,8-2.7c1.9-1.8,2.7-4.6,2.6-8.1v-16c0-0.6-0.5-1.1-1.2-1.1h-26.6v-4.4
		c0-0.6-0.5-1.1-1.2-1.1h-6c2.3-0.5,4.4-1,6.3-1.6c8.1,2.4,19.7,4.2,34.7,5.5c0.3,0,0.7-0.1,0.9-0.3c0.2-0.2,0.4-0.5,0.4-0.8v-4.7
		C238.5,264.1,238,263.6,237.5,263.5z M215.4,247.3c-4.3,3.4-8.6,6-12.8,7.9c-4.4-1.8-8.6-4.1-12.6-6.9c-0.2-0.1-0.4-0.2-0.7-0.2h-1
		c0.4-0.2,0.7-0.5,1.1-0.8H215.4z"/>
	<path class="st1" d="M173.8,100.9H73.6c-2.9,0.1-6,1.7-6,5.7v48.5c0,27.1-4.7,44.3-6.7,50.5v0.1c-0.1,0.3-0.3,1.7,0.5,2.7
		c0.3,0.4,1,0.9,2.1,0.9h12.7c2.7,0,4-1.9,4.3-2.5l0.1-0.1c3-6.2,4.4-18.2,5.6-29.4H114v22.9c0,2.3,1.9,3,3.1,3h14.4h0.3
		c1.1-0.1,2.4-0.9,2.4-3v-22.9h27.4v16.1c0,0.3,0,0.8-0.8,0.8h-8.6c-2.8,0-3.4,1.7-3.4,3.1v8.7c0,2.1,1.7,3.3,3.4,3.3
		c0.1,0,0.2,0,0.3,0h23.6c0.1,0,1.5,0,2.9-0.8c1.3-0.8,2.9-2.3,2.9-5.6V109C182.2,101.4,178.2,100.9,173.8,100.9 M89.5,116.4H114v15
		H86.8v-11.7C86.8,119.7,86.5,116.4,89.5,116.4 M114,162.6c0,0.2,0-0.7,0-0.7H86.8v-15.1H114V162.6z M134.3,116.4h24.3
		c2,0,3.1,0.8,3.1,3.1v11.9h-27.4C134.3,131.4,134.3,116.4,134.3,116.4z M162.2,161.9h-27.9v-15.1h27.9V161.9z"/>
	<path class="st1" d="M338,109.9h-76.5c0.5-5.2,0.7-8.3,0.7-8.3c0.3-1.4-0.2-2.3-0.7-2.8c-0.9-1.1-2.4-1.2-2.6-1.2h-13
		c-2.5,0-3.5,1.9-3.7,2.9c0,0-0.2,3.6-0.7,9.5h-19.9c-1.8,0-3.2,1.4-3.2,3.2v8.9c0,1.8,1.4,3.2,3.2,3.2H240
		c-2.9,24.5-9.2,61.1-22,81.8c-0.4,0.7-1,2.4-0.2,3.8c0.4,0.6,1,1.2,2.5,1.2H233l0,0c0.8,0,3.5-0.3,5.1-2.9l0.2-0.4
		c0-0.1,0.1-0.1,0.1-0.1c8.3-14.6,13.9-36.8,17.5-57.1h50.7c0.7,0,1.8-0.1,1.8,1.8c0,3.2-6,11.8-13.9,20.5c-4-4.1-7.7-8.6-11.1-13.4
		c-0.9-1.3-2.4-1.3-2.4-1.3h-17.5c-1.6,0-1.8,1.1-1.4,1.8c5.6,10.2,12.6,18.8,19.4,25.7c-4.8,4.1-9.6,7.4-13.7,9
		c-2,0.8-4.9,1.3-6.5,1.3h-3.8c-2.5,0-3,1.5-3,3.3v8.9c0,2.2,1.1,2.8,2.9,2.8h8.8c3.1,0,7-0.8,10.1-2.3c5.1-2.4,11.5-6.5,18-11.7
		c10.8,8.4,23.3,14.5,33.6,14.5h8.2c1.5,0,3.2-0.9,3.2-2.8v-10.1c0-1.9-1.2-2.4-2.5-2.4h-1.4c-8.3,0-10.7-1.5-13.9-2.7
		c-4.6-2.5-9.1-5.5-13.5-8.8c13-13.1,23.8-28.9,23.8-41.6c0-5.9-4.8-8-9.4-8h-63.9c0.5-3.8,1-7.5,1.4-10.9H338
		c1.7,0,3.2-1.4,3.2-3.2v-8.9C341.1,111.4,339.7,109.9,338,109.9"/>
	<g>
		<path class="st1" d="M274,246.2h59.4c1.1,0,2-0.9,2-2v-5.3c0-1.1-0.9-2-2-2H274c-1.1,0-2.1,0.9-2.1,2v5.3
			C271.9,245.3,272.9,246.2,274,246.2z"/>
		<path class="st1" d="M337.5,255.6h-67.7c-1.1,0-2,0.9-2,2v5.3c0,1.1,0.9,2,2,2h11l-9.9,26.6c-0.2,0.3-1.5,3.4,0,5.8
			c1,1.6,3.2,2.5,6.3,2.5h50.7c3.4,0,6-0.9,7.5-2.7c1.3-1.5,1.7-3.5,1.2-6l-4.4-14.9c-0.4-1.2-1.1-1.6-1.6-1.8h-0.1h-7.8h-0.4h-3.6
			c-1.7,0-2,1-2,1.8v1.5c0,1.3,1.1,1.9,2.1,1.9c0.1,0,0.1,0,0.2,0h1.7c0.9,3.4,3.1,10.4,3.1,10.4H286c-0.7,0-0.8-0.5-0.7-0.8
			l8.5-24.3h43.7c1.1,0,2-0.9,2-2v-5.3C339.6,256.5,338.7,255.6,337.5,255.6z"/>
	</g>
	<g>
		<path class="st1" d="M135.9,286h-6.3c-0.6,0-1.1,0.5-1.1,1.1v2.9c0.1,0.5,0,0.9-0.2,1.1c-0.2,0.3-0.8,0.4-1.6,0.4
			c-0.2,0-0.3,0-0.6,0h-1.6c-1.9,0-2.1-0.8-2.1-1.6V273c3.5-0.1,6.1-1.1,7.8-2.9c1.6-1.8,2.4-4.4,2.3-7.6v-19.7
			c0-0.6-0.5-1.1-1.1-1.1h-4.6c0.4-1,0.8-2.3,1.2-3.7c0.3-0.7,0.4-1.3,0.4-1.8c0-0.6-0.5-1.1-1.1-1.1h-9.1c-0.6,0-1,0.4-1.1,1
			c-0.2,1.7-0.7,3.6-1.5,5.6h-9c-0.8-2-1.3-3.9-1.5-5.6c-0.1-0.6-0.5-1-1.1-1h-9.1c-0.3,0-0.7,0.2-0.9,0.4c-0.2,0.3-0.3,0.6-0.2,1
			c0.5,1.8,1,3.6,1.6,5.2h-4.7c-0.6,0-1.1,0.5-1.1,1.1v29.1c0,0.6,0.5,1.1,1.1,1.1h6.2c0.1,9.5-4,13.2-12.3,17.3
			c-0.4,0.2-0.6,0.6-0.6,1v8.6c0,0.4,0.2,0.7,0.4,0.9c0.2,0.1,0.4,0.2,0.6,0.2c0.1,0,0.2,0,0.3,0c15.5-4.8,23.2-14.2,22.8-28h3.4
			v17.4c-0.1,2.8,0.5,4.9,1.9,6.4c1.5,1.7,3.9,2.5,7.1,2.5h0.6h6.3c3.6,0,6.2-0.9,7.8-2.6c1.3-1.4,1.9-3.4,1.8-5.7v-3.9
			C137,286.5,136.5,286,135.9,286z M117.7,264.9h-16.3v-15.2h19.5V262c0.1,1-0.1,1.8-0.5,2.2c-0.4,0.5-1.2,0.7-2.3,0.7
			C118,264.9,117.9,264.9,117.7,264.9z"/>
		<path class="st1" d="M88.7,283.6c0.3,0.3,0.8,0.3,1.1,0.1c0.4-0.2,0.6-0.6,0.6-1v-8c0-0.3-0.1-0.5-0.2-0.7
			c-3.1-4.2-5.6-8.8-7.5-13.7h5c0.6,0,1.1-0.5,1.1-1.1v-5.9c0-0.6-0.5-1.1-1.1-1.1h-5.8v-6.7c2.2-0.2,3.4-0.4,5.5-0.8
			c0.4-0.2,0.5-0.2,0.5-0.2c0.6,0,1.1-0.5,1.1-1.1v-6.1c0-0.3-0.1-0.7-0.4-0.9c-0.3-0.2-0.6-0.3-0.9-0.2c-4.5,1.1-7.9,1.6-11.6,1.6
			H63.2c-0.6,0-1.1,0.5-1.1,1.1v5.8c0,0.6,0.5,1.1,1.1,1.1h7.4v6.3h-8c-0.6,0-1.1,0.5-1.1,1.1v5.8c0,0.6,0.5,1.1,1.1,1.1H70
			c-1.9,6.4-5,10-9.2,16.6c-0.1,0.2-0.2,0.4-0.2,0.6v11.3c0,0.5,0.3,0.9,0.7,1c0.4,0.2,0.9,0.1,1.2-0.2c3.3-3.5,6.1-6.9,8.2-10.3
			v20.2c0,0.6,0.5,1.1,1.1,1.1h9.1c0.6,0,1.1-0.5,1.1-1.1v-23.6c1.4,1.9,3.3,4.1,5.6,6.6C88,282.9,88.4,283.3,88.7,283.6z"/>
	</g>
</g>
</svg>
