<?xml version="1.0" standalone="no"?><!DOCTYPE svg PUBLIC "-//W3C//DTD SVG 1.1//EN" "http://www.w3.org/Graphics/SVG/1.1/DTD/svg11.dtd"><svg t="1506758118176" class="icon" style="" viewBox="0 0 1024 1024" version="1.1" xmlns="http://www.w3.org/2000/svg" p-id="66205" xmlns:xlink="http://www.w3.org/1999/xlink" width="48" height="48"><defs><style type="text/css"></style></defs><path d="M844.014766 832.306096V339.199399c0-7.761778-6.29231-14.053064-14.053064-14.053064H646.702911c-7.761778 0-14.053064 6.29231-14.053064 14.053064 0 7.761778 6.29231 14.053064 14.053064 14.053064h169.204704v464.999546H92.151793V353.253486H262.574231c7.761778 0 14.053064-6.29231 14.053064-14.053064 0-7.761778-6.29231-14.053064-14.053064-14.053064H78.097706c-7.761778 0-14.053064 6.29231-14.053064 14.053064v493.106698c0 7.761778 6.29231 14.054087 14.053064 14.054087h751.862973c7.761778-0.001023 14.054087-6.293333 14.054087-14.055111z" p-id="66206" fill="#333333"></path><path d="M943.607018 438.792675h-49.749054c-7.761778 0-14.053064 6.29231-14.053064 14.053064 0 7.761778 6.29231 14.053064 14.053064 14.053064h35.69599v464.999546H205.79711v-38.881542c0-7.761778-6.29231-14.053064-14.053064-14.053064-7.761778 0-14.053064 6.29231-14.053064 14.053064v52.934606c0 7.761778 6.29231 14.053064 14.053064 14.053064h751.862972c7.761778 0 14.053064-6.29231 14.053064-14.053064V452.845739c0.001023-7.761778-6.291287-14.053064-14.053064-14.053064zM444.145589 576.329121a13.951757 13.951757 0 0 0 4.497431 2.998287 13.682627 13.682627 0 0 0 10.212596 0 13.951757 13.951757 0 0 0 4.497431-2.998287l121.796973-121.796974c5.291516-5.678326 4.977361-14.570857-0.700964-19.862373-5.396917-5.028527-13.763468-5.028527-19.160386 0l-97.156783 97.812723V198.664665v-1.217734c35.908838-7.761778 58.726519-43.163055 50.964741-79.071893s-43.163055-58.726519-79.071893-50.964742-58.726519 43.163055-50.964742 79.071893c5.51562 25.517163 25.447579 45.449121 50.964742 50.964742v335.035566l-97.905844-97.812723c-5.678326-5.291516-14.570857-4.977361-19.862373 0.700965-5.028527 5.396917-5.028527 13.763468 0 19.161408L444.145589 576.329121z m-28.107151-443.903066c0-21.215184 17.197684-38.412868 38.412868-38.412868 21.215184 0 38.412868 17.197684 38.412868 38.412868s-17.197684 38.412868-38.412868 38.412868c-21.214161 0.206708-38.578644-16.822131-38.786375-38.036291l-0.002046-0.376577h0.375553z" p-id="66207" fill="#333333"></path></svg>