<?xml version="1.0" standalone="no"?><!DOCTYPE svg PUBLIC "-//W3C//DTD SVG 1.1//EN" "http://www.w3.org/Graphics/SVG/1.1/DTD/svg11.dtd"><svg t="1506760026322" class="icon" style="" viewBox="0 0 1050 1024" version="1.1" xmlns="http://www.w3.org/2000/svg" p-id="101218" xmlns:xlink="http://www.w3.org/1999/xlink" width="49.21875" height="48"><defs><style type="text/css"></style></defs><path d="M932.254213 977.684411C967.202783 977.684411 995.621117 949.266074 995.621117 914.317504L995.621117 111.785182C995.621117 76.836614 967.202783 48.418277 932.254213 48.418277L108.587364 48.418276C73.638795 48.418276 45.221641 76.836613 45.221641 111.785181L45.221641 914.318687C45.221641 949.267256 73.638795 977.685591 108.587364 977.685591L932.254213 977.685594 932.254213 977.684411ZM932.254213 1019.917972 108.587364 1019.917972C50.274289 1019.917972 2.988079 972.630579 2.988079 914.317504L2.988079 111.785182C2.988079 53.472109 50.274289 6.184715 108.587364 6.184715L932.254213 6.184715C990.567286 6.184715 1037.854679 53.472109 1037.854679 111.785182L1037.854679 914.318687C1037.853496 972.630579 990.567288 1019.917972 932.254213 1019.917972L932.254213 1019.917972 932.254213 1019.917972 932.254213 1019.917972ZM869.016256 763.749532 595.449244 763.749532C583.820227 763.749532 574.412908 754.309089 574.412908 742.681254 574.412908 731.05342 583.820227 721.644918 595.449244 721.644918L869.016256 721.644918C880.612147 721.644918 890.052593 731.052237 890.052593 742.681254 890.052593 754.310272 880.612147 763.749532 869.016256 763.749532L869.016256 763.749532 869.016256 763.749532 869.016256 763.749532ZM448.131008 763.749532 174.565179 763.749532C162.936161 763.749532 153.528842 754.309089 153.528842 742.681254 153.528842 731.05342 162.936161 721.644918 174.565179 721.644918L448.132191 721.644918C459.761208 721.644918 469.168527 731.052237 469.168527 742.681254 469.168527 754.310272 459.761208 763.749532 448.131008 763.749532L448.131008 763.749532 448.131008 763.749532 448.131008 763.749532ZM869.016256 532.255194 595.449244 532.255194C583.820227 532.255194 574.412908 522.846692 574.412908 511.218857 574.412908 499.591022 583.820227 490.18252 595.449244 490.18252L869.016256 490.18252C880.612147 490.18252 890.052593 499.591022 890.052593 511.218857 890.052593 522.846689 880.612147 532.255194 869.016256 532.255194L869.016256 532.255194 869.016256 532.255194 869.016256 532.255194ZM448.131008 532.255194 174.565179 532.255194C162.936161 532.255194 153.528842 522.846692 153.528842 511.218857 153.528842 499.591022 162.936161 490.18252 174.565179 490.18252L448.132191 490.18252C459.761208 490.18252 469.168527 499.591022 469.168527 511.218857 469.167345 522.846689 459.761208 532.255194 448.131008 532.255194L448.131008 532.255194 448.131008 532.255194 448.131008 532.255194ZM869.016256 300.791611 595.449244 300.791611C583.820227 300.791611 574.412908 291.351168 574.412908 279.723333 574.412908 268.127442 583.820227 258.686998 595.449244 258.686998L869.016256 258.686998C880.612147 258.686998 890.052593 268.127439 890.052593 279.723333 890.052593 291.352351 880.612147 300.791611 869.016256 300.791611L869.016256 300.791611 869.016256 300.791611 869.016256 300.791611ZM448.131008 300.791611 174.565179 300.791611C162.936161 300.791611 153.528842 291.351168 153.528842 279.723333 153.528842 268.127442 162.936161 258.686998 174.565179 258.686998L448.132191 258.686998C459.761208 258.686998 469.168527 268.127439 469.168527 279.723333 469.167345 291.352351 459.761208 300.791611 448.131008 300.791611L448.131008 300.791611 448.131008 300.791611 448.131008 300.791611Z" p-id="101219" fill="#00b390"></path></svg>