<?xml version="1.0" encoding="utf-8"?>
<!-- Generator: Adobe Illustrator 21.1.0, SVG Export Plug-In . SVG Version: 6.00 Build 0)  -->
<svg version="1.1" id="图层_1" xmlns="http://www.w3.org/2000/svg" xmlns:xlink="http://www.w3.org/1999/xlink" x="0px" y="0px"
	 viewBox="0 0 180 180" style="enable-background:new 0 0 180 180;" xml:space="preserve">
<style type="text/css">
	.st0{fill:#00B390;}
</style>
<path class="st0" d="M90.7,168.3c-43.2,0-78.3-35.1-78.3-78.3c0-43.2,35.1-78.3,78.3-78.3S169,46.8,169,90
	C169,133.2,133.6,168.3,90.7,168.3z M90.7,18.5c-39.5,0-71.5,32-71.5,71.5c0,39.5,32,71.5,71.5,71.5s71.5-32,71.5-71.5
	C162.2,50.5,129.9,18.5,90.7,18.5z"/>
<path class="st0" d="M119.7,114.1h-2.9V79.3h2.9c9.9,0,17.4,7.5,17.4,17.4C137.2,106.6,129.7,114.1,119.7,114.1z M122.6,85.4V108
	c5.2-1.2,8.7-5.6,8.7-11.3C131.4,91,127.8,86.6,122.6,85.4z M90.7,47.4c-14.4,0-26.1,11.7-26.1,26.1h-5.8
	c0-17.6,14.3-31.9,31.9-31.9c17.6,0,31.9,14.3,31.9,31.9h-5.8C116.8,59.1,105.1,47.4,90.7,47.4z M64.6,79.3v34.8h-2.9
	c-9.9,0-17.4-7.5-17.4-17.4c0-9.9,7.5-17.4,17.4-17.4H64.6z M58.8,85.4c-5.2,1.2-8.7,5.6-8.7,11.3c0,5.7,3.5,10.1,8.7,11.3
	C58.8,108,58.8,85.4,58.8,85.4z M103.8,117c3.8,0,7,2.4,8.2,5.8h10.6c1.4,0,2.9-0.9,2.9-2.9h5.8c0,5-3.7,8.7-8.7,8.7H112
	c-1.2,3.5-4.5,5.8-8.2,5.8c-4.8,0-8.7-3.9-8.7-8.7C95.1,120.9,99,117,103.8,117z M103.8,128.6c1.6,0,2.9-1.3,2.9-2.9
	c0-1.6-1.3-2.9-2.9-2.9c-1.6,0-2.9,1.3-2.9,2.9C100.9,127.3,102.2,128.6,103.8,128.6L103.8,128.6z"/>
</svg>
