<?xml version="1.0" standalone="no"?><!DOCTYPE svg PUBLIC "-//W3C//DTD SVG 1.1//EN" "http://www.w3.org/Graphics/SVG/1.1/DTD/svg11.dtd"><svg t="1507532038681" class="icon" style="" viewBox="0 0 1024 1024" version="1.1" xmlns="http://www.w3.org/2000/svg" p-id="5207" xmlns:xlink="http://www.w3.org/1999/xlink" width="48" height="48"><defs><style type="text/css"></style></defs><path d="M512 824.384c172.544 0 312.384-139.84 312.384-312.384S684.544 199.616 512 199.616 199.616 339.456 199.616 512s139.84 312.384 312.384 312.384zM512 864C317.6 864 160 706.4 160 512S317.6 160 512 160s352 157.6 352 352-157.6 352-352 352zM313.984 512a19.84 19.84 0 0 1 19.648-19.808h356.736c10.848 0 19.616 9.184 19.616 19.808a19.84 19.84 0 0 1-19.616 19.808H333.632A19.936 19.936 0 0 1 313.984 512z m176-178.368c0-10.848 9.216-19.648 19.84-19.648a19.84 19.84 0 0 1 19.776 19.648v356.736a19.936 19.936 0 0 1-19.808 19.616 19.84 19.84 0 0 1-19.776-19.616V333.632z" fill="#00b390" p-id="5208"></path></svg>