<?xml version="1.0" encoding="utf-8"?>
<!-- Generator: Adobe Illustrator 21.0.0, SVG Export Plug-In . SVG Version: 6.00 Build 0)  -->
<svg version="1.1" id="图层_1" xmlns="http://www.w3.org/2000/svg" xmlns:xlink="http://www.w3.org/1999/xlink" x="0px" y="0px"
	 viewBox="0 0 1920 1080" style="enable-background:new 0 0 1920 1080;" xml:space="preserve">
<style type="text/css">
	.st0{clip-path:url(#SVGID_2_);fill:#010101;}
</style>
<g>
	<g>
		<defs>
			<rect id="SVGID_1_" x="939" y="519" width="40.8" height="43.9"/>
		</defs>
		<clipPath id="SVGID_2_">
			<use xlink:href="#SVGID_1_"  style="overflow:visible;"/>
		</clipPath>
		<path class="st0" d="M979.6,560.6l-11.9-12.4c3-3,4.9-7.2,4.9-11.9c0-9.3-7.5-16.8-16.8-16.8c-9.3,0-16.8,7.5-16.8,16.8
			c0,9.3,7.5,16.8,16.8,16.8c4.1,0,7.8-1.5,10.7-3.9l11.9,12.4c0.2,0.2,0.4,0.2,0.6,0.2c0.2,0,0.4-0.1,0.6-0.2
			C979.9,561.4,979.9,560.9,979.6,560.6L979.6,560.6z M955.8,551.6c-8.4,0-15.2-6.8-15.2-15.2c0-8.4,6.8-15.2,15.2-15.2
			c8.4,0,15.2,6.8,15.2,15.2C971,544.8,964.2,551.6,955.8,551.6L955.8,551.6z M955.8,551.6"/>
	</g>
</g>
</svg>
