<?xml version="1.0" standalone="no"?><!DOCTYPE svg PUBLIC "-//W3C//DTD SVG 1.1//EN" "http://www.w3.org/Graphics/SVG/1.1/DTD/svg11.dtd"><svg t="1507703061577" class="icon" style="" viewBox="0 0 1024 1024" version="1.1" xmlns="http://www.w3.org/2000/svg" p-id="69869" xmlns:xlink="http://www.w3.org/1999/xlink" width="180" height="180"><defs><style type="text/css"></style></defs><path d="M512 1005.037037C239.748741 1005.037037 18.962963 784.232296 18.962963 512 18.962963 239.748741 239.748741 18.962963 512 18.962963s493.037037 220.785778 493.037037 493.037037c0 272.232296-222.947556 493.037037-493.037037 493.037037z m0-943.217778C263.338667 61.819259 61.819259 263.35763 61.819259 512c0 248.661333 201.519407 450.180741 450.180741 450.180741 248.661333 0 450.180741-201.519407 450.180741-450.180741C962.180741 263.338667 758.518519 61.819259 512 61.819259z m223.725037 526.980741h-34.702222a17.370074 17.370074 0 0 1-17.389037-17.370074v-69.44237c0-9.595259 7.774815-17.370074 17.370074-17.370075h34.721185c9.595259 0 17.370074 7.774815 17.370074 17.370075v69.44237c0 9.576296-7.774815 17.370074-17.370074 17.370074z m0-156.254815h-34.702222a17.370074 17.370074 0 0 1-17.389037-17.370074v-69.44237c0-9.595259 7.774815-17.370074 17.370074-17.370074h34.721185c9.595259 0 17.370074 7.774815 17.370074 17.370074v69.44237c0 9.576296-7.774815 17.351111-17.370074 17.351111z m-138.884741 156.254815h-34.721185a17.370074 17.370074 0 0 1-17.370074-17.370074v-69.44237c0-9.595259 7.774815-17.370074 17.370074-17.370075h34.721185c9.576296 0 17.351111 7.774815 17.351111 17.370075v69.44237c0 9.576296-7.774815 17.370074-17.351111 17.370074z m0-156.254815h-34.721185a17.370074 17.370074 0 0 1-17.370074-17.370074v-69.44237c0-9.595259 7.774815-17.370074 17.370074-17.370074h34.721185c9.576296 0 17.351111 7.774815 17.351111 17.370074v69.44237c0 9.576296-7.774815 17.351111-17.351111 17.351111z m121.53363 243.067259v17.351112c0 9.595259-7.774815 17.370074-17.370074 17.370074H319.051852a17.370074 17.370074 0 0 1-17.370074-17.370074v-17.351112c0-9.595259 7.774815-17.370074 17.370074-17.370074h381.952c9.595259 0 17.370074 7.774815 17.370074 17.370074zM457.936593 588.8h-34.702223a17.370074 17.370074 0 0 1-17.370074-17.370074v-69.44237c0-9.595259 7.774815-17.370074 17.351111-17.370075h34.721186c9.576296 0 17.370074 7.774815 17.370074 17.370075v69.44237c0 9.576296-7.774815 17.370074-17.370074 17.370074z m0-156.254815h-34.702223a17.370074 17.370074 0 0 1-17.370074-17.370074v-69.44237c0-9.595259 7.774815-17.370074 17.351111-17.370074h34.721186c9.576296 0 17.370074 7.774815 17.370074 17.370074v69.44237c0 9.576296-7.774815 17.351111-17.370074 17.351111z m-138.884741 156.254815h-34.721185a17.370074 17.370074 0 0 1-17.370074-17.370074v-69.44237c0-9.595259 7.774815-17.370074 17.370074-17.370075h34.702222c9.595259 0 17.370074 7.774815 17.370074 17.370075v69.44237c0 9.576296-7.774815 17.370074-17.351111 17.370074z m0-156.254815h-34.721185a17.370074 17.370074 0 0 1-17.370074-17.370074v-69.44237c0-9.595259 7.774815-17.370074 17.370074-17.370074h34.702222c9.595259 0 17.370074 7.774815 17.370074 17.370074v69.44237c0 9.576296-7.774815 17.351111-17.351111 17.351111z" fill="#029c7e" p-id="69870"></path></svg>