<?xml version="1.0" standalone="no"?><!DOCTYPE svg PUBLIC "-//W3C//DTD SVG 1.1//EN" "http://www.w3.org/Graphics/SVG/1.1/DTD/svg11.dtd"><svg t="1506759906251" class="icon" style="" viewBox="0 0 1024 1024" version="1.1" xmlns="http://www.w3.org/2000/svg" p-id="99792" xmlns:xlink="http://www.w3.org/1999/xlink" width="48" height="48"><defs><style type="text/css"></style></defs><path d="M876.8 1024H147.2c-44.8 0-83.2-38.4-83.2-89.6V89.6C64 38.4 102.4 0 147.2 0h723.2c51.2 0 89.6 38.4 89.6 89.6v844.8c0 51.2-38.4 89.6-83.2 89.6zM147.2 57.6c-19.2 0-32 12.8-32 32v844.8c0 19.2 12.8 32 32 32h723.2c19.2 0 32-12.8 32-32V89.6c0-19.2-12.8-32-32-32H147.2z m633.6 147.2H243.2c-19.2 0-32-12.8-32-32s12.8-32 32-32h544c19.2 0 32 12.8 32 32-6.4 12.8-19.2 32-38.4 32z m0 128H243.2c-19.2 0-32-12.8-32-32s12.8-32 32-32h544c19.2 0 32 12.8 32 32-6.4 19.2-19.2 32-38.4 32z m0 128H243.2c-19.2 0-32-12.8-32-32s12.8-32 32-32h544c19.2 0 32 12.8 32 32-6.4 19.2-19.2 32-38.4 32z m-435.2 128H243.2c-19.2 0-32-12.8-32-32s12.8-32 32-32h108.8c19.2 0 32 12.8 32 32-6.4 19.2-19.2 32-38.4 32z m403.2 6.4l-204.8 204.8c-6.4 6.4-19.2 6.4-25.6 0L448 729.6c-12.8-12.8-32-12.8-44.8 0-12.8 12.8-12.8 32 0 44.8l83.2 83.2 25.6 25.6c6.4 6.4 19.2 6.4 25.6 0l249.6-249.6c12.8-12.8 12.8-32 0-44.8-6.4-6.4-25.6-6.4-38.4 6.4z" p-id="99793" fill="#03a686"></path></svg>