<?xml version="1.0" standalone="no"?><!DOCTYPE svg PUBLIC "-//W3C//DTD SVG 1.1//EN" "http://www.w3.org/Graphics/SVG/1.1/DTD/svg11.dtd"><svg t="1507528755790" class="icon" style="" viewBox="0 0 1024 1024" version="1.1" xmlns="http://www.w3.org/2000/svg" p-id="4635" xmlns:xlink="http://www.w3.org/1999/xlink" width="48" height="48"><defs><style type="text/css"></style></defs><path d="M835.584 48.64c41.472 0 74.752 32.768 74.752 73.216v713.216l7.168-16.896-161.792 164.864 17.92-7.68h-584.704c-40.96 0-74.752-32.768-74.752-73.216V24.576l-25.088 24.576h746.496z m-771.584-48.64V902.144c0 67.072 55.808 121.856 124.416 121.856h595.456l7.168-7.68 161.792-164.864 7.168-7.168V121.856c0-67.072-55.808-121.856-124.416-121.856H64z m672.256 707.072c-41.472 0-74.752 32.768-74.752 73.216V926.72c0 13.312 11.264 24.576 25.088 24.576s25.088-10.752 25.088-24.576v-146.432c0-13.312 11.264-24.576 25.088-24.576h112.128c13.824 0 25.088-10.752 25.088-24.576 0-13.312-11.264-24.576-25.088-24.576h-112.64z m38.912-487.424c13.824 0 25.088-10.752 25.088-24.576 0-13.312-11.264-24.576-25.088-24.576h-512c-13.824 0-25.088 10.752-25.088 24.576 0 13.312 11.264 24.576 25.088 24.576h512z m0 145.92c13.824 0 25.088-10.752 25.088-24.576 0-13.312-11.264-24.576-25.088-24.576h-512c-13.824 0-25.088 10.752-25.088 24.576 0 13.312 11.264 24.576 25.088 24.576h512z m0 171.008c13.824 0 25.088-10.752 25.088-24.576s-11.264-24.576-25.088-24.576h-512c-13.824 0-25.088 10.752-25.088 24.576s11.264 24.576 25.088 24.576h512z" fill="#179b7e" p-id="4636"></path></svg>