<?xml version="1.0" standalone="no"?><!DOCTYPE svg PUBLIC "-//W3C//DTD SVG 1.1//EN" "http://www.w3.org/Graphics/SVG/1.1/DTD/svg11.dtd"><svg t="1507637597062" class="icon" style="" viewBox="0 0 1024 1024" version="1.1" xmlns="http://www.w3.org/2000/svg" p-id="21913" xmlns:xlink="http://www.w3.org/1999/xlink" width="200" height="200"><defs><style type="text/css"></style></defs><path d="M843.294118 1008.941176H180.705882c-42.164706 0-75.294118-33.129412-75.294117-75.294117V90.352941c0-42.164706 33.129412-75.294118 75.294117-75.294117h463.811765L918.588235 289.129412V933.647059c0 42.164706-33.129412 75.294118-75.294117 75.294117zM180.705882 45.176471C155.105882 45.176471 135.529412 64.752941 135.529412 90.352941v843.294118c0 25.6 19.576471 45.176471 45.17647 45.17647h662.588236c25.6 0 45.176471-19.576471 45.17647-45.17647V301.176471L632.470588 45.176471H180.705882z" fill="#00B390" p-id="21914"></path><path d="M903.529412 308.705882H707.764706c-42.164706 0-75.294118-33.129412-75.294118-75.294117v-195.764706h30.117647v195.764706c0 25.6 19.576471 45.176471 45.176471 45.17647h195.764706v30.117647z" fill="#00B390" p-id="21915"></path><path d="M240.941176 411.105882h542.117648v30.117647H240.941176zM240.941176 527.058824h451.764706v30.117647H240.941176zM240.941176 644.517647h361.411765v30.117647H240.941176z" fill="#00B390" p-id="21916"></path></svg>