<?xml version="1.0" standalone="no"?><!DOCTYPE svg PUBLIC "-//W3C//DTD SVG 1.1//EN" "http://www.w3.org/Graphics/SVG/1.1/DTD/svg11.dtd"><svg t="1507702590496" class="icon" style="" viewBox="0 0 1024 1024" version="1.1" xmlns="http://www.w3.org/2000/svg" p-id="66703" xmlns:xlink="http://www.w3.org/1999/xlink" width="180" height="180"><defs><style type="text/css"></style></defs><path d="M532.907671 527.082918c-66.547953 0-119.561035-79.227482-120.771765-147.365647-1.270965-68.951341 51.422871-126.120659 117.440753-127.433788l2.300988-0.030118c64.771012 0 118.464753 55.061082 119.699576 122.759529 1.240847 69.216376-49.591718 150.708706-117.019106 152.051953L532.907671 527.082918zM531.871624 279.497788l-1.770918 0.030118c-51.007247 0.999906-91.726306 45.730635-90.7264 99.689412 0.945694 54.296094 44.315106 120.621176 93.527341 120.621176l1.120376-0.030118c49.826635-0.975812 91.280565-69.174212 90.304753-124.307576C623.387106 322.578071 581.909082 279.497788 531.871624 279.497788z" p-id="66704" fill="#becad8"></path><path d="M726.082259 810.815247 337.600753 810.815247c-13.299953 0-25.178353-5.144094-34.322071-14.872094-9.137694-9.715953-13.534871-21.865412-12.733741-35.189459 1.915482-31.063341 6.547576-65.999812 12.914447-114.356706l6.192188-46.308894c5.162165-19.739106 24.798871-43.471812 55.753788-48.941176l75.420612-13.4144c12.294024-2.240753 24.262776 3.035859 31.725929 13.444518l59.295624 83.323482 59.259482-83.311435c7.457129-10.420706 19.341553-15.673224 31.756047-13.462588l75.420612 13.4144c30.930824 5.469365 50.567529 29.190024 55.753788 48.917082l0.325271 1.710682 5.897035 45.025882c6.366871 48.146071 10.968847 82.968094 12.854212 113.941082 0.825224 13.342118-3.565929 25.521694-12.733741 35.219576C751.230494 805.671153 739.382212 810.815247 726.082259 810.815247zM336.215341 606.250165l-5.752471 43.7248c-6.306635 47.796706-10.878494 82.323576-12.709647 112.441224-0.355388 5.794635 1.415529 10.643576 5.366965 14.848 4.041788 4.306824 8.637741 6.306635 14.474541 6.306635l388.487529 0c5.8368 0 10.408659-2.005835 14.474541-6.306635 3.981553-4.204424 5.722353-9.053365 5.366965-14.860047-1.831153-30.033318-6.366871-64.421647-12.679529-112.043671l-5.776565-44.122353c-2.831059-9.390682-14.185412-24.768753-33.966682-28.292518l-75.420612-13.402353c-3.300894 0.018071-4.216471 1.698635-4.776659 2.451576l-81.456188 114.501271-81.498353-114.501271c-0.530071-0.752941-2.005835-2.523859-4.035765-2.523859l-76.131388 13.474635C350.364612 581.469365 339.010259 596.859482 336.215341 606.250165z" p-id="66705" fill="#becad8"></path></svg>