<?xml version="1.0" standalone="no"?><!DOCTYPE svg PUBLIC "-//W3C//DTD SVG 1.1//EN" "http://www.w3.org/Graphics/SVG/1.1/DTD/svg11.dtd"><svg t="1506759251087" class="icon" style="" viewBox="0 0 1024 1024" version="1.1" xmlns="http://www.w3.org/2000/svg" p-id="94592" xmlns:xlink="http://www.w3.org/1999/xlink" width="48" height="48"><defs><style type="text/css"></style></defs><path d="M507.395634 1011.962849c-200.798259 0-363.562273-69.279876-363.562273-154.733107 0-55.343469 68.52263-103.761202 171.196057-131.11827 9.720386 13.467733 19.460214 26.735921 29.135574 39.626509-90.935082 18.795065-151.869896 52.659337-151.869896 91.491761 0 59.159378 141.085272 107.108436 315.099515 107.108436 173.993776 0 315.077002-47.949059 315.077002-107.108436 0-38.832424-60.934814-72.696696-151.848407-91.51325 9.676383-12.891611 19.416212-26.158776 29.138644-39.628556C802.435277 753.447051 870.956883 801.886273 870.956883 857.229742 870.956883 942.682973 708.190823 1011.962849 507.395634 1011.962849L507.395634 1011.962849zM507.395634 845.335854c0 0-339.331405-315.853691-339.331405-499.896334 0-184.067202 151.912875-333.273433 339.331405-333.273433 187.41853 0 339.330382 149.20623 339.330382 333.273433C846.724992 529.482163 507.395634 845.335854 507.395634 845.335854L507.395634 845.335854zM507.395634 59.785641c-160.612001 0-290.844088 125.59651-290.844088 280.549627 0 154.954141 290.844088 433.568696 290.844088 433.568696s290.847158-278.615579 290.847158-433.568696C798.241768 185.382151 668.053684 59.785641 507.395634 59.785641L507.395634 59.785641zM507.395634 512.063445c-93.709265 0-169.665191-74.603115-169.665191-166.624948 0-92.045369 75.955926-166.647461 169.665191-166.647461s169.665191 74.602092 169.665191 166.647461C677.059801 437.461353 601.104899 512.063445 507.395634 512.063445L507.395634 512.063445zM507.395634 226.41059c-66.947761 0-121.17685 53.30095-121.17685 119.027907 0 65.704444 54.229089 119.005394 121.17685 119.005394 66.925249 0 121.17685-53.30095 121.17685-119.005394C628.572484 279.71154 574.343395 226.41059 507.395634 226.41059L507.395634 226.41059z" p-id="94593" fill="#00b390"></path></svg>