<?xml version="1.0" standalone="no"?><!DOCTYPE svg PUBLIC "-//W3C//DTD SVG 1.1//EN" "http://www.w3.org/Graphics/SVG/1.1/DTD/svg11.dtd"><svg t="1506759450995" class="icon" style="" viewBox="0 0 1024 1024" version="1.1" xmlns="http://www.w3.org/2000/svg" p-id="97564" xmlns:xlink="http://www.w3.org/1999/xlink" width="48" height="48"><defs><style type="text/css"></style></defs><path d="M924.344303 615.976096C823.367517 752.48105 675.607218 838.787718 510.627746 838.787718c-164.965146 0-312.725444-86.306668-413.717579-222.810598-44.591591-60.261479-44.591591-149.832494 0-210.108299 100.992135-136.50393 248.752434-222.810598 413.717579-222.810598 164.980495 0 312.740794 86.306668 413.71758 222.810598 44.591591 60.274782 44.591591 149.84682-0.001023 210.107275z m-32.869619-164.39721C795.042401 310.37184 656.248312 229.39455 510.686075 229.39455s-284.356326 80.977289-380.788609 222.185359c-22.976294 33.643238-22.976294 82.47234 0 116.115577 96.432283 141.208069 235.226373 222.200708 380.788609 222.200708s284.356326-80.992639 380.788609-222.216057c22.976294-33.628912 22.976294-82.458013 0-116.101251zM510.925528 719.472262c-115.27442 0-208.721719-93.448322-208.721718-208.721719s93.448322-208.721719 208.721718-208.721719 208.721719 93.448322 208.721719 208.721719-93.447299 208.721719-208.721719 208.721719z m0.202615-367.099843c-87.584778 0-158.580738 70.996984-158.580738 158.580739s70.996984 158.580738 158.580738 158.580738c87.584778 0 158.580738-70.996984 158.580738-158.580738s-70.995961-158.580738-158.580738-158.580739z" p-id="97565" fill="#00b390"></path></svg>