<?xml version="1.0" encoding="utf-8"?>
<!-- Generator: Adobe Illustrator 19.0.0, SVG Export Plug-In . SVG Version: 6.00 Build 0)  -->
<svg version="1.1" id="图层_1" xmlns="http://www.w3.org/2000/svg" xmlns:xlink="http://www.w3.org/1999/xlink" x="0px" y="0px"
	 viewBox="-582 285 200 200" style="enable-background:new -582 285 200 200;" xml:space="preserve">
<style type="text/css">
	.st0{fill:#00B390;}
</style>
<path class="st0" d="M-417.3,482.1h-129.4c-8.2,0-14.7-6.5-14.7-14.7V302.6c0-8.2,6.5-14.7,14.7-14.7h90.6l53.5,53.5v125.9
	C-402.6,475.6-409.1,482.1-417.3,482.1z M-546.7,293.8c-5,0-8.8,3.8-8.8,8.8v164.7c0,5,3.8,8.8,8.8,8.8h129.4c5,0,8.8-3.8,8.8-8.8
	V343.8l-50-50H-546.7z"/>
<path class="st0" d="M-405.5,345.3h-38.2c-8.2,0-14.7-6.5-14.7-14.7v-38.2h5.9v38.2c0,5,3.8,8.8,8.8,8.8h38.2V345.3z"/>
<rect x="-547.9" y="390.5" transform="matrix(0.7071 -0.7071 0.7071 0.7071 -433.0534 -257.9834)" class="st0" width="40" height="6.5"/>
<rect x="-547.9" y="414.7" transform="matrix(0.7071 0.7071 -0.7071 0.7071 140.8983 495.722)" class="st0" width="40" height="6.5"/>
<rect x="-455.3" y="414.7" transform="matrix(-0.7071 0.7071 -0.7071 -0.7071 -447.4899 1021.2368)" class="st0" width="40" height="6.5"/>
<rect x="-455.3" y="390.5" transform="matrix(-0.7071 -0.7071 0.7071 -0.7071 -1021.4415 364.4051)" class="st0" width="40" height="6.5"/>
<rect x="-549.8" y="405.3" transform="matrix(0.5736 -0.8191 0.8191 0.5736 -541.3481 -224.0507)" class="st0" width="127.8" height="5.3"/>
</svg>
