<?xml version="1.0" encoding="utf-8"?>
<!-- Generator: Adobe Illustrator 21.1.0, SVG Export Plug-In . SVG Version: 6.00 Build 0)  -->
<svg version="1.1" id="图层_1" xmlns="http://www.w3.org/2000/svg" xmlns:xlink="http://www.w3.org/1999/xlink" x="0px" y="0px"
	 viewBox="0 0 200 200" style="enable-background:new 0 0 200 200;" xml:space="preserve">
<style type="text/css">
	.st0{fill:#00B390;}
</style>
<path class="st0" d="M16.7,48.6h102.6c39.1,0,70.4,31.3,70.4,70.4s-31.3,70.4-70.4,70.4H73c-2.7,0-4.5,1.8-4.5,4.5
	c0,2.7,1.8,4.5,4.5,4.5h46.3c44.1,0,79.5-35.4,79.5-79.5s-35.4-79.5-79.5-79.5H16.7L47.6,8.6c1.8-1.8,1.8-4.5,0-6.4s-4.5-1.8-6.4,0
	L2.6,40.8c-1.8,1.8-1.8,4.5,0,6.4l38.6,38.6c1.8,1.8,4.5,1.8,6.4,0c1.8-1.8,1.8-4.5,0-6.4C47.6,79.4,16.7,48.6,16.7,48.6z"/>
</svg>
