<?xml version="1.0" encoding="utf-8"?>
<!-- Generator: Adobe Illustrator 21.1.0, SVG Export Plug-In . SVG Version: 6.00 Build 0)  -->
<svg version="1.1" id="图层_1" xmlns="http://www.w3.org/2000/svg" xmlns:xlink="http://www.w3.org/1999/xlink" x="0px" y="0px"
	 viewBox="0 0 332.1 70.3" style="enable-background:new 0 0 332.1 70.3;" xml:space="preserve">
<style type="text/css">
	.st0{fill:#FFFFFF;}
</style>
<g>
	<g>
		<g>
			<g>
				<g>
					<g>
						<g>
							<path class="st0" d="M242.3,56.4c-0.3,0.1-0.5,0.4-0.5,0.7V63l0,0l0,0h2.5c0.3,0,0.4-0.2,0.4-0.4v-5c1.7-0.4,2.8,0,2.8,0.7
								v4.3c0,0.2,0.1,0.4,0.4,0.4h2.5v-4.6C250.3,56.1,247.3,55,242.3,56.4z M259.8,56.1h-2.1c-0.4,0-0.5,0.1-0.7,0.4
								c-0.1,0.1-1.6,3.2-1.6,3.2c-0.1,0.3-0.4,0.2-0.5,0c0,0-1.4-3-1.5-3.1c-0.2-0.3-0.4-0.5-0.8-0.5h-2.1c-0.1,0-0.1,0.1-0.1,0.2
								c0,0.1,3.2,6.9,3.2,6.9l-1.6,3.1c-0.2,0.3,0,0.5,0.3,0.5h2.2c0,0,5.3-10.3,5.4-10.5C260,56.2,259.9,56.1,259.8,56.1z
								 M236.7,55.8c-1.4,0-2.5,0.4-3.3,1.1c-0.7,0.7-1.2,1.7-1.2,2.6c0,1.1,0.5,2,1.1,2.6c0.8,0.7,2,1.1,3.3,1.1
								c1.4,0,2.5-0.4,3.3-1.1c0.7-0.7,1.2-1.8,1.2-2.6c0-1.1-0.4-2-1.1-2.6C239.2,56.1,238.1,55.8,236.7,55.8z M238.1,60.1
								c-0.7,1.3-1.5,1.8-2.5,1.4c-1-0.4-1.1-1.4-0.3-2.8c0.7-1.3,1.6-1.8,2.5-1.4C238.7,57.8,238.8,58.8,238.1,60.1z M232.5,56.1
								h-2.1c-0.4,0-0.5,0.1-0.7,0.4c0,0.1-1.6,3.2-1.6,3.2c-0.1,0.3-0.4,0.2-0.5,0c0,0-1.4-3-1.5-3.1c-0.2-0.3-0.4-0.5-0.8-0.5
								h-2.1c-0.1,0-0.1,0.1-0.1,0.2c0,0.1,3.2,6.9,3.2,6.9l-1.6,3.1c-0.2,0.3,0,0.5,0.4,0.5h2.2c0,0,5.3-10.3,5.4-10.5
								C232.7,56.2,232.6,56.1,232.5,56.1z M275.1,56.1c-0.3,0-0.4,0.2-0.4,0.4v5c-1.7,0.4-2.7,0-2.7-0.7v-4.3
								c0-0.2-0.1-0.4-0.4-0.4h-2.5v4.6c0,2.3,2.9,3.4,8,2c0.3-0.1,0.5-0.4,0.5-0.7v-5.8l0,0L275.1,56.1L275.1,56.1z M263.9,55.8
								c-1.4,0-2.5,0.4-3.3,1.1c-0.8,0.7-1.2,1.7-1.2,2.6c0,1.1,0.4,2,1.1,2.6c0.8,0.7,2,1.1,3.3,1.1c1.4,0,2.5-0.4,3.3-1.1
								c0.8-0.7,1.2-1.8,1.2-2.6c0-1.1-0.4-2-1.1-2.6C266.5,56.1,265.4,55.8,263.9,55.8z M265.4,60.1c-0.7,1.3-1.5,1.8-2.5,1.4
								c-1-0.4-1.1-1.4-0.4-2.8c0.7-1.3,1.6-1.8,2.5-1.4C266,57.8,266.1,58.8,265.4,60.1z"/>
						</g>
					</g>
					<g>
						<g>
							<path class="st0" d="M314.3,62.2c0.8,0.7,1.9,1,3.4,1c0.4,0,0.7,0,1-0.1l0,0h2.5c0.2,0,0.4-0.2,0.4-0.4V52.3h-2.5
								c-0.2,0-0.4,0.2-0.4,0.4V56c-0.3,0-0.7-0.1-1-0.1c-1.4,0-2.5,0.4-3.3,1.1c-0.7,0.7-1.2,1.8-1.2,2.6
								C313.2,60.6,313.6,61.5,314.3,62.2z M316.3,58.9c0.6-1.2,1.5-1.8,2.4-1.4V61c-0.6,0.8-1.3,1.1-2.1,0.7
								C315.6,61.2,315.5,60.3,316.3,58.9z"/>
						</g>
					</g>
					<g>
						<g>
							<path class="st0" d="M290.5,63.2L290.5,63.2h2.5c0.3,0,0.4-0.2,0.4-0.4V52.3h-2.5c-0.2,0-0.4,0.2-0.4,0.4V56v1.5V61V63.2z"/>
						</g>
					</g>
					<g>
						<g>
							<g>
								<g>
									<path class="st0" d="M309.8,56.1c-0.3,0-0.4,0.2-0.4,0.4v5c-1.7,0.4-2.7,0-2.7-0.7v-4.3c0-0.2-0.1-0.4-0.4-0.4h-2.5v4.6
										c0,2.3,3,3.4,8,2c0.3-0.1,0.5-0.4,0.5-0.7v-5.8l0,0L309.8,56.1L309.8,56.1z M298.6,55.8c-1.4,0-2.5,0.4-3.3,1.1
										c-0.8,0.7-1.2,1.7-1.2,2.6c0,1.1,0.5,2,1.1,2.6c0.8,0.7,2,1.1,3.3,1.1c1.4,0,2.5-0.4,3.3-1.1c0.7-0.7,1.2-1.8,1.2-2.6
										c0-1.1-0.4-2-1.1-2.6C301.2,56.1,300.1,55.8,298.6,55.8z M300.1,60.1c-0.7,1.3-1.5,1.8-2.5,1.4c-1-0.4-1.1-1.4-0.3-2.8
										c0.7-1.3,1.6-1.8,2.5-1.4C300.7,57.8,300.8,58.8,300.1,60.1z"/>
								</g>
							</g>
						</g>
					</g>
					<path class="st0" d="M289.2,61.2c-0.1,0-0.1,0-0.2,0c-0.3,0-0.6,0.1-0.9,0.1s-0.5,0-0.8-0.1c-0.2-0.1-0.5-0.2-0.6-0.3
						c-0.2-0.1-0.3-0.3-0.4-0.5s-0.2-0.5-0.2-0.9c0-0.7,0.2-1.1,0.6-1.4c0.4-0.3,0.8-0.4,1.4-0.4c0.2,0,0.3,0,0.4,0s0.3,0,0.4,0
						s0.3,0,0.4,0c0.3,0,0.3-0.3,0.3-0.3v-1.6c-0.2-0.1-0.4-0.1-0.6-0.1s-0.4,0-0.7-0.1c-0.2,0-0.5,0-0.7,0c-0.7,0-1.4,0.1-2,0.3
						s-1.1,0.4-1.4,0.8c-0.4,0.3-0.7,0.7-0.9,1.2c-0.2,0.5-0.3,1-0.3,1.5c0,0.6,0.1,1.1,0.3,1.6c0.2,0.5,0.5,0.9,0.9,1.2
						s0.9,0.6,1.5,0.8s1.3,0.3,2,0.3c0.5,0,0.9,0,1.4-0.1c0.2,0,0.4-0.1,0.6-0.1v-1.6C289.6,61.5,289.7,61.1,289.2,61.2z"/>
				</g>
			</g>
		</g>
	</g>
	<g>
		<path class="st0" d="M275.4,24.5c-4.8-0.6-9.1-1.4-12.6-2.3c3.2-1.7,6.3-4.2,9.1-7.2c0.1-0.1,0.2-0.3,0.2-0.4V11
			c0-0.4-0.3-0.7-0.7-0.7h-19.2l0.3-0.4c0.4-0.5,0.6-0.8,0.8-1.1c0.1-0.2,0.1-0.4,0-0.6c-0.1-0.2-0.3-0.3-0.6-0.3h-6.3
			c-0.2,0-0.5,0.1-0.6,0.3c-2.1,3.3-5.6,5.6-10.3,6.9c-0.3,0.1-0.5,0.3-0.5,0.6v2.6c0,0.2,0.1,0.4,0.2,0.5c0.2,0.1,0.3,0.2,0.5,0.2
			c2.1-0.3,4-0.7,5.7-1.2c2,1.6,4.1,3.1,6.3,4.3c-3.9,1-8.2,1.8-12.9,2.5c-0.3,0-0.6,0.3-0.6,0.6v2.9c0,0.2,0.1,0.4,0.2,0.5
			c0.1,0.1,0.3,0.2,0.5,0.2c5.1-0.6,9.6-1.2,13.4-2l0,0v2.6h-11.2c-0.4,0-0.7,0.3-0.7,0.7v3.4c0,0.4,0.3,0.7,0.7,0.7h10.5
			c-1,3.5-5.1,5.2-12.1,6.9c-0.3,0.1-0.5,0.3-0.5,0.6v4.2c0,0.2,0.1,0.4,0.2,0.5c0.1,0.1,0.3,0.2,0.4,0.2h0.1
			c11.7-2.1,18.1-6.3,19-12.4h9.7v5.3c0,0.5-0.1,0.9-0.3,1.1c-0.4,0.4-1.1,0.5-1.7,0.5H259c-0.4,0-0.7,0.3-0.7,0.7V45
			c0,0.4,0.3,0.7,0.7,0.7h6.3h0.3c2,0,3.6-0.5,4.6-1.6c1.1-1.1,1.6-2.7,1.5-4.7v-9.3c0-0.4-0.3-0.7-0.7-0.7h-15.4v-2.6
			c0-0.4-0.3-0.7-0.7-0.7h-3.5c1.3-0.3,2.5-0.6,3.6-0.9c4.7,1.4,11.4,2.4,20.1,3.2c0.2,0,0.4,0,0.5-0.2c0.1-0.1,0.2-0.3,0.2-0.5V25
			C276,24.8,275.7,24.5,275.4,24.5z M262.6,15c-2.5,2-5,3.5-7.4,4.6c-2.5-1-5-2.4-7.3-4c-0.1-0.1-0.3-0.1-0.4-0.1h-0.6
			c0.2-0.1,0.4-0.3,0.6-0.5H262.6z"/>
		<path class="st0" d="M188,24.6c-4.8-0.6-9.1-1.4-12.6-2.3c3.2-1.7,6.3-4.1,9.1-7.2c0.1-0.1,0.2-0.3,0.2-0.4v-3.5
			c0-0.4-0.3-0.7-0.7-0.7h-19.2l0.3-0.4c0.4-0.5,0.6-0.8,0.8-1.1c0.1-0.2,0.1-0.4,0-0.6c-0.1-0.2-0.3-0.3-0.6-0.3H159
			c-0.2,0-0.5,0.1-0.6,0.3c-2.1,3.3-5.6,5.6-10.3,6.9c-0.3,0.1-0.5,0.3-0.5,0.6v2.6c0,0.2,0.1,0.4,0.2,0.5c0.2,0.1,0.3,0.2,0.5,0.2
			c2.1-0.3,4-0.7,5.7-1.2c2,1.6,4.1,3.1,6.3,4.3c-3.9,1-8.2,1.8-12.9,2.5c-0.3,0-0.6,0.3-0.6,0.6v2.9c0,0.2,0.1,0.4,0.2,0.5
			c0.1,0.1,0.3,0.2,0.5,0.2c5.1-0.6,9.6-1.2,13.4-2l0,0v2.5h-11.2c-0.4,0-0.7,0.3-0.7,0.7v3.4c0,0.4,0.3,0.7,0.7,0.7h10.5
			c-1,3.5-5.1,5.2-12.1,6.9c-0.3,0.1-0.5,0.3-0.5,0.6V46c0,0.2,0.1,0.4,0.2,0.5c0.1,0.1,0.3,0.2,0.4,0.2h0.1
			c11.7-2.1,18.1-6.3,19-12.3h9.7v5.3c0,0.5-0.1,0.8-0.3,1.1c-0.4,0.4-1.1,0.5-1.7,0.5h-3.8c-0.4,0-0.7,0.3-0.7,0.7v3
			c0,0.4,0.3,0.7,0.7,0.7h6.3h0.3c2,0,3.6-0.5,4.6-1.5c1.1-1.1,1.6-2.6,1.5-4.7v-9.3c0-0.4-0.3-0.7-0.7-0.7h-15.4V27
			c0-0.4-0.3-0.7-0.7-0.7h-3.5c1.3-0.3,2.5-0.6,3.6-0.9c4.7,1.4,11.4,2.4,20.1,3.2c0.2,0,0.4,0,0.5-0.2c0.1-0.1,0.2-0.3,0.2-0.5
			v-2.7C188.6,24.9,188.3,24.6,188,24.6z M175.2,15.2c-2.5,2-5,3.5-7.4,4.6c-2.5-1-5-2.4-7.3-4c-0.1-0.1-0.3-0.1-0.4-0.1h-0.6
			c0.2-0.1,0.4-0.3,0.6-0.5C160.1,15.2,175.2,15.2,175.2,15.2z"/>
		<path class="st0" d="M49.9,10H16.3c-1,0-2,0.6-2,1.9v16.2c0,9.1-1.6,14.8-2.2,16.9l0,0c0,0.1-0.1,0.6,0.2,0.9
			c0.1,0.1,0.3,0.3,0.7,0.3h4.3c0.9,0,1.3-0.6,1.5-0.8l0,0c1-2.1,1.5-6.1,1.9-9.9H30v7.7c0,0.8,0.6,1,1,1h4.8h0.1
			c0.4,0,0.8-0.3,0.8-1v-7.6h9.2V41c0,0.1,0,0.3-0.3,0.3h-2.9c-0.9,0-1.1,0.6-1.1,1v2.9c0,0.7,0.6,1.1,1.1,1.1h0.1h7.9
			c0,0,0.5,0,1-0.3c0.4-0.3,1-0.8,1-1.9V12.7C52.6,10.2,51.3,10,49.9,10 M21.6,15.2h8.2v5h-9.1v-3.9C20.7,16.3,20.6,15.2,21.6,15.2
			 M29.8,30.7c0,0.1,0-0.2,0-0.2h-9.1v-5.1h9.1V30.7z M36.6,15.2h8.1c0.7,0,1.1,0.3,1.1,1v4h-9.2C36.6,20.2,36.6,15.2,36.6,15.2z
			 M45.9,30.4h-9.3v-5.1h9.3V30.4z"/>
		<path class="st0" d="M96.5,12.1H70.9c0.2-1.7,0.2-2.8,0.2-2.8c0.1-0.5-0.1-0.8-0.2-0.9C70.6,8,70.1,8,70,8h-4.3
			c-0.8,0-1.2,0.6-1.2,1c0,0-0.1,1.2-0.2,3.2h-6.7c-0.6,0-1.1,0.5-1.1,1.1v3c0,0.6,0.5,1.1,1.1,1.1h6.1c-1,8.2-3.1,20.4-7.4,27.4
			c-0.1,0.2-0.3,0.8-0.1,1.3c0.1,0.2,0.3,0.4,0.8,0.4h4.3l0,0c0.3,0,1.2-0.1,1.7-1l0.1-0.1l0,0c2.8-4.9,4.6-12.3,5.8-19.1h17
			c0.2,0,0.6,0,0.6,0.6c0,1.1-2,4-4.7,6.9c-1.3-1.4-2.6-2.9-3.7-4.5c-0.3-0.4-0.8-0.4-0.8-0.4h-5.9c-0.5,0-0.6,0.4-0.5,0.6
			c1.9,3.4,4.2,6.3,6.5,8.6c-1.6,1.4-3.2,2.5-4.6,3c-0.7,0.3-1.6,0.4-2.2,0.4h-1.3c-0.8,0-1,0.5-1,1.1v3c0,0.7,0.4,0.9,1,0.9h2.9
			c1,0,2.3-0.3,3.4-0.8c1.7-0.8,3.8-2.2,6-3.9c3.6,2.8,7.8,4.8,11.2,4.8h2.7c0.5,0,1.1-0.3,1.1-0.9v-3.4c0-0.6-0.4-0.8-0.8-0.8h-0.5
			c-2.8,0-3.6-0.5-4.7-0.9c-1.5-0.8-3.1-1.8-4.5-2.9c4.3-4.4,8-9.7,8-13.9c0-2-1.6-2.7-3.2-2.7h-21c0.2-1.3,0.3-2.5,0.5-3.6h26.1
			c0.6,0,1.1-0.5,1.1-1.1v-3C97.5,12.6,97.1,12.1,96.5,12.1"/>
		<g>
			<path class="st0" d="M283.7,15.2h34.4c0.6,0,1.2-0.5,1.2-1.2v-3c0-0.6-0.5-1.2-1.2-1.2h-34.4c-0.6,0-1.2,0.5-1.2,1.2v3
				C282.5,14.7,283.1,15.2,283.7,15.2z"/>
			<path class="st0" d="M320.5,20.7h-39.2c-0.7,0-1.2,0.5-1.2,1.2v3c0,0.6,0.5,1.2,1.2,1.2h6.4L282,41.5c-0.1,0.2-0.9,2,0,3.3
				c0.6,0.9,1.8,1.4,3.6,1.4h29.3c2,0,3.5-0.5,4.3-1.6c0.7-0.9,1-2.1,0.7-3.5l-2.5-8.6c-0.2-0.7-0.6-0.9-1-1h-0.1h-4.5h-0.2h-2.1
				c-1,0-1.2,0.6-1.2,1.1v0.9c0,0.7,0.6,1.1,1.2,1.1h0.1h1c0.5,2,1.8,6,1.8,6h-21.9c-0.4,0-0.4-0.3-0.4-0.4l4.9-14h25.4
				c0.7,0,1.2-0.5,1.2-1.2v-3C321.7,21.2,321.2,20.7,320.5,20.7z"/>
		</g>
		<g>
			<g>
				<path class="st0" d="M205.8,8.3h-13.7c-0.3,0-0.6,0.3-0.6,0.7v22.9c0.1,4.6-0.6,5.8-2,7.2c-0.1,0.1-0.2,0.3-0.2,0.5v5.5
					c0,0.2,0.1,0.5,0.3,0.6c0.1,0.1,0.2,0.1,0.3,0.1s0.2,0,0.3-0.1c4.9-2.8,7.3-7.2,7.1-13h3.3v7.4c0,0.1,0,0.3,0,0.4
					c0,0-0.2,0.2-0.8,0.2c-0.1,0-0.2,0-0.4,0h-1.8c-0.3,0-0.6,0.3-0.6,0.7v3.3c0,0.4,0.3,0.7,0.6,0.7h3.4c2,0,3.4-0.5,4.3-1.5
					c0.8-0.9,1.1-2.1,1.1-3.6V9C206.4,8.6,206.1,8.3,205.8,8.3z M197.3,18.1v-5.4h3.3v5.4H197.3z M200.6,22.7v5.5h-3.3v-5.5H200.6z"
					/>
			</g>
			<path class="st0" d="M231.4,40.9c-2.5-1.2-4.2-2.3-5.2-3.2c2.3-2.9,3.8-6.8,4.7-11.7v-3.4c0-0.4-0.3-0.7-0.6-0.7h-15.6v-8.6h9.1
				V15c0,0.5,0,0.8-0.2,1c-0.3,0.3-0.8,0.4-1.2,0.4c-0.1,0-0.2,0-0.3,0H219c-0.3,0-0.6,0.3-0.6,0.7v3.3c0,0.4,0.3,0.7,0.6,0.7h4.9
				c2.6,0.1,4.5-0.4,5.6-1.7c0.8-1,1.2-2.4,1.1-4v-6c0-0.4-0.3-0.7-0.6-0.7h-21.1c-0.3,0-0.6,0.3-0.6,0.7v36c0,0.4,0.3,0.7,0.6,0.7
				h4.9h0.1c0.7,0,1.3-0.1,1.6-0.2c0,0,0,0,0.1,0c0,0,0.1,0,0.1-0.1c0.2-0.1,0.3-0.2,0.3-0.2l0,0c2.7-1.5,5-2.8,6.8-4
				c2.2,1.3,5,2.7,8.3,4.3c0.2,0.1,0.4,0.1,0.6-0.1c0.2-0.1,0.3-0.3,0.3-0.6v-3.4C231.7,41.2,231.6,41,231.4,40.9z M214.9,40.5
				c-0.1,0-0.2,0.1-0.2,0.2V30.6c1,2.9,2.4,5.3,4.1,7.2C217.3,39.2,216,40.1,214.9,40.5z M222.2,33.2c-1-1.6-1.8-2.9-2.5-5.1
				c-0.1-0.3-0.3-0.5-0.6-0.5h-4.5v-1h9.7C223.9,29.2,223.2,31.4,222.2,33.2z"/>
		</g>
		<g>
			<path class="st0" d="M143.8,37.6h-3.6c-0.3,0-0.6,0.3-0.6,0.7V40c0,0.3,0,0.5-0.1,0.6c-0.1,0.2-0.5,0.3-0.9,0.3
				c-0.1,0-0.2,0-0.3,0h-0.9c-1.1,0-1.2-0.5-1.2-0.9v-9.8c2,0,3.5-0.6,4.5-1.7c0.9-1,1.4-2.5,1.3-4.4V12.6c0-0.4-0.3-0.7-0.6-0.7
				h-2.6c0.2-0.6,0.5-1.3,0.7-2.2c0.2-0.4,0.2-0.7,0.2-1c0-0.4-0.3-0.7-0.6-0.7h-5.3c-0.3,0-0.6,0.3-0.6,0.6c-0.1,1-0.4,2.1-0.9,3.3
				h-5.2c-0.5-1.2-0.8-2.3-0.9-3.3c0-0.3-0.3-0.6-0.6-0.6h-5.3c-0.2,0-0.4,0.1-0.5,0.3s-0.2,0.4-0.1,0.6c0.3,1.1,0.6,2.1,0.9,3h-2.7
				c-0.3,0-0.6,0.3-0.6,0.7v16.9c0,0.4,0.3,0.7,0.6,0.7h3.6c0,5.5-2.3,7.6-7.1,10c-0.2,0.1-0.4,0.3-0.4,0.6v5c0,0.2,0.1,0.4,0.3,0.5
				c0.1,0.1,0.2,0.1,0.4,0.1c0.1,0,0.1,0,0.2,0c9-2.8,13.4-8.2,13.2-16.2h1.8v10.1c-0.1,1.6,0.3,2.9,1.1,3.7c0.9,1,2.3,1.5,4.1,1.5
				h0.3h3.7c2.1,0,3.6-0.5,4.5-1.5c0.7-0.8,1.1-1.9,1-3.3v-2.2C144.5,37.9,144.2,37.6,143.8,37.6z M133.3,25.4h-9.4v-8.8h11.3v7.1
				c0,0.6-0.1,1-0.3,1.3s-0.7,0.4-1.3,0.4C133.5,25.4,133.4,25.4,133.3,25.4z"/>
			<path class="st0" d="M116.5,36.2c0.2,0.2,0.4,0.2,0.7,0.1c0.2-0.1,0.4-0.3,0.4-0.6V31c0-0.1,0-0.3-0.1-0.4
				c-1.8-2.5-3.3-5.1-4.3-7.9h2.9c0.3,0,0.6-0.3,0.6-0.7v-3.4c0-0.4-0.3-0.7-0.6-0.7h-3.3V14c1.3-0.1,2-0.3,3.2-0.5
				c0.2-0.1,0.3-0.1,0.3-0.1c0.3,0,0.6-0.3,0.6-0.7V9.3c0-0.2-0.1-0.4-0.2-0.5s-0.3-0.2-0.5-0.1c-2.6,0.6-4.6,0.9-6.7,0.9H102
				c-0.3,0-0.6,0.3-0.6,0.7v3.4c0,0.4,0.3,0.7,0.6,0.7h4.3V18h-4.7c-0.3,0-0.6,0.3-0.6,0.7V22c0,0.4,0.3,0.7,0.6,0.7h4.3
				c-1.1,3.7-2.9,5.8-5.3,9.6c-0.1,0.1-0.1,0.2-0.1,0.4v6.6c0,0.3,0.2,0.5,0.4,0.6c0.2,0.1,0.5,0,0.7-0.1c1.9-2,3.5-4,4.8-6v11.6
				c0,0.4,0.3,0.7,0.6,0.7h5.3c0.3,0,0.6-0.3,0.6-0.7V31.6c0.8,1.1,1.9,2.4,3.3,3.8C116.1,35.8,116.3,36,116.5,36.2z"/>
		</g>
	</g>
</g>
</svg>
