<?xml version="1.0" encoding="utf-8"?>
<!-- Generator: Adobe Illustrator 21.0.0, SVG Export Plug-In . SVG Version: 6.00 Build 0)  -->
<svg version="1.1" id="Capa_1" xmlns="http://www.w3.org/2000/svg" xmlns:xlink="http://www.w3.org/1999/xlink" x="0px" y="0px"
	 viewBox="0 0 60 60" style="enable-background:new 0 0 60 60;" xml:space="preserve">
<style type="text/css">
	.st0{fill:#00B390;}
</style>
<g>
	<path class="st0" d="M36,22H11c-0.6,0-1,0.4-1,1s0.4,1,1,1h25c0.6,0,1-0.4,1-1S36.6,22,36,22z"/>
	<path class="st0" d="M11,16h10c0.6,0,1-0.4,1-1s-0.4-1-1-1H11c-0.6,0-1,0.4-1,1S10.4,16,11,16z"/>
	<path class="st0" d="M37,31c0-0.6-0.4-1-1-1H11c-0.6,0-1,0.4-1,1s0.4,1,1,1h25C36.6,32,37,31.6,37,31z"/>
	<path class="st0" d="M29,39c0-0.6-0.4-1-1-1H11c-0.6,0-1,0.4-1,1s0.4,1,1,1h17C28.6,40,29,39.6,29,39z"/>
	<path class="st0" d="M11,46c-0.6,0-1,0.4-1,1s0.4,1,1,1h14c0.6,0,1-0.4,1-1s-0.4-1-1-1H11z"/>
	<path class="st0" d="M2,2h29v14h14v17h2V14.6L32.4,0H0v60h30v-2H2V2z M33,3.4L43.6,14H33V3.4z"/>
	<path class="st0" d="M59.7,56.6L47.8,36.3c-0.4-0.7-1.1-1.1-1.9-1.1c-0.8,0-1.5,0.4-1.9,1.1L32.1,56.6c-0.4,0.7-0.4,1.5,0,2.2
		c0.4,0.7,1.1,1.1,1.9,1.1h23.7c0.8,0,1.5-0.4,1.9-1.1C60.1,58.2,60.1,57.3,59.7,56.6z M58,57.9c0,0.1-0.1,0.1-0.2,0.1H34.1
		c-0.1,0-0.2-0.1-0.2-0.1c0-0.1-0.1-0.1,0-0.2l11.8-20.3c0.1-0.1,0.1-0.1,0.2-0.1c0.1,0,0.1,0,0.2,0.1L58,57.6
		C58,57.7,58,57.8,58,57.9z"/>
	<path class="st0" d="M46,42c-0.6,0-1,0.4-1,1v8c0,0.6,0.4,1,1,1s1-0.4,1-1v-8C47,42.4,46.6,42,46,42z"/>
	<path class="st0" d="M45.3,54.3C45.1,54.5,45,54.7,45,55s0.1,0.5,0.3,0.7c0.2,0.2,0.5,0.3,0.7,0.3c0.3,0,0.5-0.1,0.7-0.3
		c0.2-0.2,0.3-0.5,0.3-0.7s-0.1-0.5-0.3-0.7C46.3,53.9,45.7,53.9,45.3,54.3z"/>
</g>
</svg>
