<?xml version="1.0" encoding="utf-8"?>
<!-- Generator: Adobe Illustrator 21.0.0, SVG Export Plug-In . SVG Version: 6.00 Build 0)  -->
<svg version="1.1" id="Capa_1" xmlns="http://www.w3.org/2000/svg" xmlns:xlink="http://www.w3.org/1999/xlink" x="0px" y="0px"
	 viewBox="0 0 60 60" style="enable-background:new 0 0 60 60;" xml:space="preserve">
<style type="text/css">
	.st0{fill:#00B390;}
</style>
<g>
	<path class="st0" d="M12.5,24h25c0.6,0,1-0.4,1-1s-0.4-1-1-1h-25c-0.6,0-1,0.4-1,1S11.9,24,12.5,24z"/>
	<path class="st0" d="M12.5,16h10c0.6,0,1-0.4,1-1s-0.4-1-1-1h-10c-0.6,0-1,0.4-1,1S11.9,16,12.5,16z"/>
	<path class="st0" d="M12.5,32h25c0.6,0,1-0.4,1-1s-0.4-1-1-1h-25c-0.6,0-1,0.4-1,1S11.9,32,12.5,32z"/>
	<path class="st0" d="M29.5,38h-17c-0.6,0-1,0.4-1,1s0.4,1,1,1h17c0.6,0,1-0.4,1-1S30.1,38,29.5,38z"/>
	<path class="st0" d="M26.5,46h-14c-0.6,0-1,0.4-1,1s0.4,1,1,1h14c0.6,0,1-0.4,1-1S27.1,46,26.5,46z"/>
	<path class="st0" d="M48.5,34.4V14.6L33.9,0H1.5v60h44c7.2,0,13-5.8,13-13C58.5,40.9,54.2,35.7,48.5,34.4z M34.5,3.4L45.1,14H34.5
		V3.4z M38.6,58H3.5V2h29v14h14v18c-0.3,0-0.7,0-1,0c-7.2,0-13,5.8-13,13c0,0.4,0,0.8,0.1,1.2c0,0.1,0,0.2,0,0.3
		c0,0.4,0.1,0.8,0.2,1.1c0,0,0,0.1,0,0.1c0.1,0.3,0.2,0.7,0.3,1c0,0.1,0,0.2,0.1,0.2c0.1,0.4,0.2,0.7,0.4,1c0,0.1,0.1,0.1,0.1,0.2
		c0.1,0.3,0.3,0.6,0.4,0.9c0,0.1,0.1,0.1,0.1,0.2c0.2,0.3,0.4,0.6,0.6,0.9c0,0.1,0.1,0.1,0.1,0.2c0.2,0.3,0.4,0.5,0.6,0.8
		c0,0,0.1,0.1,0.1,0.1c0.2,0.3,0.5,0.5,0.7,0.8c0.1,0.1,0.1,0.1,0.2,0.2c0.2,0.2,0.5,0.5,0.8,0.7c0,0,0,0,0.1,0.1
		c0.3,0.2,0.6,0.4,0.9,0.7c0.1,0.1,0.1,0.1,0.2,0.1C38.4,57.9,38.5,58,38.6,58z M45.5,58c-6.1,0-11-4.9-11-11s4.9-11,11-11
		c0.3,0,0.6,0,0.9,0c0.3,0,0.6,0.1,0.9,0.1l0.4,0.1c5,1.1,8.7,5.5,8.7,10.8C56.5,53.1,51.6,58,45.5,58z"/>
	<path class="st0" d="M50.5,42c-0.4-0.4-1-0.4-1.4,0l-3.5,3.5L42,42c-0.4-0.4-1-0.4-1.4,0s-0.4,1,0,1.4l3.5,3.5l-3.5,3.5
		c-0.4,0.4-0.4,1,0,1.4c0.2,0.2,0.5,0.3,0.7,0.3s0.5-0.1,0.7-0.3l3.5-3.5L49,52c0.2,0.2,0.5,0.3,0.7,0.3s0.5-0.1,0.7-0.3
		c0.4-0.4,0.4-1,0-1.4L46.9,47l3.5-3.5C50.8,43.1,50.8,42.4,50.5,42z"/>
</g>
</svg>
