<?xml version="1.0" encoding="utf-8"?>
<!-- Generator: Adobe Illustrator 21.0.0, SVG Export Plug-In . SVG Version: 6.00 Build 0)  -->
<svg version="1.1" id="图层_1" xmlns="http://www.w3.org/2000/svg" xmlns:xlink="http://www.w3.org/1999/xlink" x="0px" y="0px"
	 viewBox="0 0 512 512" style="enable-background:new 0 0 512 512;" xml:space="preserve">
<style type="text/css">
	.st0{fill:#010101;}
	.st1{clip-path:url(#SVGID_2_);fill:#010101;}
	.st2{clip-path:url(#SVGID_4_);fill:#010101;}
</style>
<g>
	<path class="st0" d="M307.2,187.7H93.9c-4.3,0-8.5,4.3-8.5,8.5c0,4.3,4.3,8.5,8.5,8.5h213.3c4.3,0,8.5-4.3,8.5-8.5
		C315.7,192,311.5,187.7,307.2,187.7L307.2,187.7z"/>
	<path class="st0" d="M93.9,136.5h85.3c4.3,0,8.5-4.3,8.5-8.5c0-4.3-4.3-8.5-8.5-8.5H93.9c-4.3,0-8.5,4.3-8.5,8.5
		C85.3,132.3,89.6,136.5,93.9,136.5L93.9,136.5z"/>
	<path class="st0" d="M315.7,264.5c0-4.3-4.3-8.5-8.5-8.5H93.9c-4.3,0-8.5,4.3-8.5,8.5c0,4.3,4.3,8.5,8.5,8.5h213.3
		C311.5,273.1,315.7,268.8,315.7,264.5L315.7,264.5z"/>
	<path class="st0" d="M247.5,332.8c0-4.3-4.3-8.5-8.5-8.5H93.9c-4.3,0-8.5,4.3-8.5,8.5c0,4.3,4.3,8.5,8.5,8.5h145.1
		C243.2,341.3,247.5,337.1,247.5,332.8L247.5,332.8z"/>
	<path class="st0" d="M93.9,392.5c-4.3,0-8.5,4.3-8.5,8.5c0,4.3,4.3,8.5,8.5,8.5h119.5c4.3,0,8.5-4.3,8.5-8.5c0-4.3-4.3-8.5-8.5-8.5
		H93.9z"/>
	<g>
		<g>
			<defs>
				<rect id="SVGID_1_" width="512" height="512"/>
			</defs>
			<clipPath id="SVGID_2_">
				<use xlink:href="#SVGID_1_"  style="overflow:visible;"/>
			</clipPath>
			<path class="st1" d="M17.1,17.1h247.5v119.5H384v145.1h17.1V124.8L276.3,0H0v512h256v-17.1H17.1V17.1z M281.6,28.8l90.7,90.7
				h-90.7V28.8z"/>
		</g>
		<g>
			<defs>
				<rect id="SVGID_3_" width="512" height="512"/>
			</defs>
			<clipPath id="SVGID_4_">
				<use xlink:href="#SVGID_3_"  style="overflow:visible;"/>
			</clipPath>
			<path class="st2" d="M509.9,483.2L408.5,310.4c-3.2-6.4-9.6-9.6-16-9.6s-12.8,3.2-16,9.6L275.2,483.2c-3.2,6.4-3.2,12.8,0,19.2
				c3.2,6.4,9.6,9.6,17.1,9.6h202.7c6.4,0,12.8-3.2,17.1-9.6C513.1,496,513.1,489.6,509.9,483.2L509.9,483.2z M494.9,493.9
				c0,0-1.1,1.1-2.1,1.1H291.2c-1.1,0-1.1,0-2.1-1.1c0,0,0-1.1,0-2.1l101.3-172.8c0-1.1,1.1-1.1,2.1-1.1c1.1,0,1.1,0,2.1,1.1
				L496,491.7C494.9,492.8,494.9,493.9,494.9,493.9L494.9,493.9z"/>
		</g>
	</g>
	<path class="st0" d="M392.5,358.4c-4.3,0-8.5,4.3-8.5,8.5v68.3c0,4.3,4.3,8.5,8.5,8.5c4.3,0,8.5-4.3,8.5-8.5v-68.3
		C401.1,362.7,396.8,358.4,392.5,358.4L392.5,358.4z"/>
	<path class="st0" d="M386.1,462.9c-1.1,2.1-2.1,4.3-2.1,6.4s1.1,4.3,2.1,6.4c2.1,1.1,4.3,2.1,6.4,2.1c2.1,0,4.3-1.1,6.4-2.1
		c1.1-2.1,2.1-4.3,2.1-6.4s-1.1-4.3-2.1-6.4C395.7,459.7,389.3,459.7,386.1,462.9L386.1,462.9z"/>
</g>
</svg>
