<?xml version="1.0" encoding="utf-8"?>
<!-- Generator: Adobe Illustrator 21.0.0, SVG Export Plug-In . SVG Version: 6.00 Build 0)  -->
<svg version="1.1" id="图层_1" xmlns="http://www.w3.org/2000/svg" xmlns:xlink="http://www.w3.org/1999/xlink" x="0px" y="0px"
	 viewBox="0 0 512 512" style="enable-background:new 0 0 512 512;" xml:space="preserve">
<style type="text/css">
	.st0{fill:#010101;}
</style>
<g>
	<path class="st0" d="M106.7,204.8H320c4.3,0,8.5-4.3,8.5-8.5c0-4.3-4.3-8.5-8.5-8.5H106.7c-4.3,0-8.5,4.3-8.5,8.5
		C98.1,200.5,102.4,204.8,106.7,204.8L106.7,204.8z"/>
	<path class="st0" d="M106.7,136.5H192c4.3,0,8.5-4.3,8.5-8.5c0-4.3-4.3-8.5-8.5-8.5h-85.3c-4.3,0-8.5,4.3-8.5,8.5
		C98.1,132.3,102.4,136.5,106.7,136.5L106.7,136.5z"/>
	<path class="st0" d="M106.7,273.1H320c4.3,0,8.5-4.3,8.5-8.5c0-4.3-4.3-8.5-8.5-8.5H106.7c-4.3,0-8.5,4.3-8.5,8.5
		C98.1,268.8,102.4,273.1,106.7,273.1L106.7,273.1z"/>
	<path class="st0" d="M251.7,324.3H106.7c-4.3,0-8.5,4.3-8.5,8.5c0,4.3,4.3,8.5,8.5,8.5h145.1c4.3,0,8.5-4.3,8.5-8.5
		C260.3,328.5,256,324.3,251.7,324.3L251.7,324.3z"/>
	<path class="st0" d="M226.1,392.5H106.7c-4.3,0-8.5,4.3-8.5,8.5c0,4.3,4.3,8.5,8.5,8.5h119.5c4.3,0,8.5-4.3,8.5-8.5
		S230.4,392.5,226.1,392.5L226.1,392.5z"/>
	<path class="st0" d="M413.9,293.3V124.8L289.1,0H12.8v512h375.5c60.8,0,110.9-50.1,110.9-110.9
		C499.2,348.8,462.9,305.1,413.9,293.3L413.9,293.3z M294.4,28.8l90.7,90.7h-90.7V28.8z M329.6,494.9H29.9V17.1h247.5v119.5h119.5
		v153.6c-3.2,0-5.3,0-8.5,0c-60.8,0-110.9,50.1-110.9,110.9c0,3.2,0,6.4,0,9.6c0,1.1,0,1.1,0,2.1c0,3.2,1.1,6.4,1.1,9.6v1.1
		c1.1,3.2,1.1,5.3,2.1,8.5c0,1.1,0,1.1,1.1,2.1c1.1,3.2,2.1,6.4,3.2,8.5c0,0,0,1.1,1.1,2.1c1.1,2.1,2.1,5.3,3.2,7.5
		c0,1.1,1.1,1.1,1.1,2.1c1.1,3.2,3.2,5.3,4.3,7.5c0,1.1,1.1,1.1,1.1,2.1c1.1,2.1,3.2,4.3,5.3,6.4l1.1,1.1c2.1,2.1,4.3,4.3,6.4,6.4
		c1.1,1.1,1.1,1.1,2.1,1.1c2.1,2.1,4.3,4.3,6.4,6.4c0,0,0,0,1.1,0c2.1,2.1,5.3,4.3,7.5,5.3c1.1,0,1.1,1.1,2.1,1.1
		C327.5,493.9,328.5,494.9,329.6,494.9L329.6,494.9z M388.3,494.9c-52.3,0-93.9-41.6-93.9-93.9c0-52.3,42.7-93.9,93.9-93.9
		c2.1,0,5.3,0,7.5,0s5.3,1.1,7.5,1.1l4.3,1.1c42.7,8.5,74.7,46.9,74.7,91.7C482.1,453.3,440.5,494.9,388.3,494.9L388.3,494.9z"/>
	<path class="st0" d="M432,353.1l-48,68.3l-34.1-27.7c-3.2-3.2-8.5-2.1-11.7,1.1c-3.2,3.2-2.1,8.5,1.1,11.7l40.5,33.1
		c1.1,1.1,3.2,2.1,5.3,2.1h1.1c2.1,0,4.3-2.1,6.4-3.2l53.3-75.7c3.2-4.3,2.1-9.6-2.1-11.7C440.5,348.8,435.2,349.9,432,353.1
		L432,353.1z"/>
</g>
</svg>
