<?xml version="1.0" encoding="utf-8"?>
<!-- Generator: Adobe Illustrator 19.0.0, SVG Export Plug-In . SVG Version: 6.00 Build 0)  -->
<svg version="1.1" id="图层_1" xmlns="http://www.w3.org/2000/svg" xmlns:xlink="http://www.w3.org/1999/xlink" x="0px" y="0px"
	 viewBox="0 0 425.2 425.2" style="enable-background:new 0 0 425.2 425.2;" xml:space="preserve">
<style type="text/css">
	.st0{fill:#E60012;}
	.st1{fill:#FFFFFF;}
</style>
<g id="XMLID_2_">
	<circle id="XMLID_31_" class="st0" cx="211.9" cy="213.9" r="203.9"/>
	<g id="XMLID_3_">
		<g id="XMLID_23_">
			<path id="XMLID_25_" class="st1" d="M205.2,121.4H102.7c-2.9,0.1-6.1,1.7-6.1,5.8v49.5c0,27.7-4.8,45.3-6.8,51.6l0,0.1
				c-0.1,0.3-0.3,1.7,0.5,2.7c0.3,0.4,1,1,2.2,1h13c2.7,0,4.1-2,4.4-2.6l0.1-0.1c3-6.3,4.5-18.6,5.7-30.1H144v23.4
				c0,2.4,2,3.1,3.2,3.1h14.7l0.4,0c1.2-0.1,2.5-0.9,2.5-3.1v-23.2l28,0V216c0,0.3,0,0.8-0.8,0.8h-8.8c-2.8,0-3.4,1.7-3.4,3.2v8.9
				c0,2.2,1.8,3.3,3.5,3.3c0.1,0,0.3,0,0.3,0h24.1c0.1,0,1.5,0,3-0.8c1.4-0.8,3-2.4,3-5.7v-95.8C213.6,122,209.6,121.4,205.2,121.4z
				 M144,183.7v0.7C144,184.7,144,183.7,144,183.7h-27.8v-15.5H144V183.7z M144,152.6h-27.8v-11.9c0,0-0.3-3.4,2.8-3.4l25.1,0
				C144,137.3,144,152.6,144,152.6z M164.7,137.3h24.8c2,0,3.2,0.8,3.2,3.2v12.1h-28V137.3z M193.2,183.7h-28.5v-15.5h28.5V183.7z"
				/>
			<path id="XMLID_24_" class="st1" d="M344.2,127.8h-78.1c0.5-5.3,0.7-8.5,0.7-8.5c0.3-1.5-0.2-2.4-0.7-2.9
				c-0.9-1.2-2.5-1.2-2.6-1.2h-13.3c-2.6,0-3.6,1.9-3.8,2.9c0,0-0.2,3.7-0.7,9.7h-20.3c-1.8,0-3.3,1.5-3.3,3.3v9.1
				c0,1.8,1.5,3.3,3.3,3.3h18.8c-3,25-9.4,62.4-22.5,83.6c-0.4,0.7-1,2.5-0.2,3.9c0.4,0.6,1.1,1.2,2.6,1.2h13h0
				c0.8,0,3.5-0.3,5.2-2.9l0.3-0.4c0-0.1,0.1-0.1,0.1-0.1c8.5-14.9,14.2-37.6,17.9-58.4h51.8c0.7,0,1.9-0.1,1.9,1.9
				c0,3.3-6.1,12.1-14.2,20.9c-4.1-4.2-7.9-8.8-11.3-13.7c-0.9-1.3-2.5-1.3-2.5-1.3h-18c-1.7,0-1.8,1.1-1.5,1.9
				c5.8,10.4,12.8,19.2,19.8,26.2c-4.9,4.2-9.8,7.5-14,9.2c-2.1,0.9-5,1.3-6.6,1.3H262c-2.5,0-3.1,1.5-3.1,3.4v9.1
				c0,2.3,1.1,2.8,2.9,2.8h9c3.2,0,7.1-0.8,10.3-2.3c5.2-2.4,11.7-6.6,18.4-12c11,8.6,19.2,12.1,17.1,10.8c-1-0.7,6.7,4,17.3,4h8.4
				c1.5,0,3.2-0.9,3.2-2.9v-10.3c0-1.9-1.3-2.4-2.6-2.4h-1.4c-8.5,0-10.9-1.5-14.2-2.8c-4.7-2.6-9.3-5.6-13.8-9
				c13.3-13.4,24.4-29.5,24.4-42.5c0-6-4.9-8.2-9.6-8.2H263c0.5-3.9,1-7.6,1.4-11.1h79.8c1.8,0,3.2-1.4,3.2-3.3v-9.1
				C347.4,129.3,346,127.8,344.2,127.8z"/>
		</g>
		<g id="XMLID_4_">
			<path id="XMLID_22_" class="st1" d="M292.5,284.2c-0.7,0-1.4,0.6-1.4,1.4v3.7c0,0.7,0.6,1.4,1.4,1.4H341c0.7,0,1.4-0.6,1.4-1.4
				v-3.7c0-0.7-0.6-1.4-1.4-1.4H292.5z"/>
			<path id="XMLID_16_" class="st1" d="M287.8,263.4h16.6v2.5H291c-1,0-1.7,0.8-1.7,1.7v13c0,1,0.8,1.7,1.7,1.7h45.4
				c5.4,0.2,8-2.3,7.8-7.3v-7.5c0-1-0.8-1.7-1.7-1.7h-13.6v-2.5h16.6c0.7,0,1.3-0.6,1.3-1.3v-4.2c0-0.7-0.6-1.3-1.3-1.3h-57.6
				c-0.7,0-1.3,0.6-1.3,1.3v4.2C286.6,262.8,287.1,263.4,287.8,263.4z M304.4,276.5h-6.4c-0.5,0-1-0.4-1-1v-3.3c0-0.5,0.4-1,1-1h6.4
				V276.5z M328.9,271.2h7.5v2.5c0.2,1.8-0.8,2.8-3,2.8h-4.6V271.2z M312.9,263.4h7.4v2.5h-7.4V263.4z M312.9,271.2h7.4v5.3h-7.4
				V271.2z"/>
			<path id="XMLID_15_" class="st1" d="M346.5,292.3h-59.6c-0.7,0-1.2,0.5-1.2,1.2v4.3c0,0.7,0.5,1.2,1.2,1.2h26.3v4.1
				c0.2,2.3-1.2,3.4-4,3.3h-1.6c-0.7,0-1.3,0.6-1.3,1.3v3.5c0,0.7,0.6,1.3,1.3,1.3h5.4c6.3,0.2,9.3-2.4,9.2-7.8V299h24.4
				c0.7,0,1.2-0.5,1.2-1.2v-4.3C347.7,292.9,347.2,292.3,346.5,292.3z"/>
			<path id="XMLID_14_" class="st1" d="M346.1,305.6c-4.6-1-8-1.2-10.2-4.6c-0.2-0.3-0.5-0.5-0.8-0.5h-6.2c-0.8,0-1.2,0.8-0.9,1.5
				c3,5.6,8.9,9,17.7,10.1c0.8,0.1,1.5-0.5,1.5-1.4v-3.9C347.2,306.3,346.7,305.7,346.1,305.6z"/>
			<path id="XMLID_13_" class="st1" d="M304.9,300.5h-6.4c-0.4,0-0.7,0.2-0.9,0.5c-1.9,3.4-5.2,3.5-9.9,4.5
				c-0.6,0.1-1.1,0.7-1.1,1.3v3.9c0,0.8,0.7,1.5,1.5,1.4c8.8-1.1,14.7-4.5,17.7-10.1C306.1,301.4,305.7,300.5,304.9,300.5z"/>
			<path id="XMLID_7_" class="st1" d="M150.1,300.4h-5.6c0,0-1.4-0.2-1.7,1v0.2c0.2,2.7-0.4,3.9-3.8,3.8h-10.7
				c-3.8,0.2-5.6-1.6-5.4-5.3v-2.7h11.3c7.9,0.2,11.7-3.3,11.3-10.3v-24c0-1.1-0.9-2.1-2.1-2.1H123v-4.6c0-0.8-0.6-1.4-1.4-1.4h-8.4
				c-0.8,0-1.4,0.6-1.4,1.4v4.6H91.9c-1.1,0-2.1,0.9-2.1,2.1v32.3c0,1.1,0.9,2,2,2h19.9v5.3c-0.2,6.5,3.5,9.7,11,9.5h19.1
				c6.6,0.2,9.8-2.5,9.6-8v-2.4C151.5,301.1,150.9,300.4,150.1,300.4z M123,267.3h11.8c0.7,0,1.3,0.6,1.3,1.3v6.8H123V267.3z
				 M123,282.5h13.1v4.1c0.2,3-1.5,4.4-5.1,4.3h-8V282.5z M111.8,290.9h-11.4c-0.7,0-1.3-0.6-1.3-1.3v-7.1h12.7V290.9z M111.8,275.3
				H99.1v-6.8c0-0.7,0.6-1.3,1.3-1.3h11.4V275.3z"/>
			<path id="XMLID_6_" class="st1" d="M214.6,279.6h-22.5v-1.9c6.3-2.8,12.3-8.3,18.1-13.2c1.1-0.9,1.7-2.3,1.7-3.7v-1.9
				c0-1.1-0.9-2-2-2h-47.4c-0.9,0-1.5,0.7-1.5,1.6v4.8c0,0.9,0.7,1.6,1.5,1.6h30.9c1.1,0,1.6,0.9,0.7,1.6c-3.3,2.4-6.7,4.9-10.9,7
				c-0.7,0.3-1.1,1-1.1,1.8v4.4h-24.9c-1.1,0-2.1,0.9-2.1,2.1v3.6c0,0.4,0.1,0.7,0.3,1.1v0.1h0c0.4,0.6,1,1,1.7,1H182v13.4
				c0.2,2.7-1.3,4.1-4.5,4.1h-2.9c-0.9,0-1.6,0.7-1.6,1.6v4.3c0,0.9,0.7,1.6,1.6,1.6h6.9c7,0,10.6-3.3,10.6-9.9v-15h22.5
				c1.1,0,2.1-0.9,2.1-2.1v-3.6C216.7,280.5,215.8,279.6,214.6,279.6z"/>
			<path id="XMLID_5_" class="st1" d="M280.7,264.5h-7.2v-6.1c0-0.8-0.7-1.5-1.5-1.5h-5c-0.8,0-1.5,0.7-1.5,1.5v6.1h-17.2
				c0.8-3.2,1.4-5.9,1.8-7.8c0.2-1-0.6-2-1.6-2H243c-0.7,0-1.4,0.5-1.5,1.3c-0.5,2.1-1,5.1-1.9,8.5h-7.7c1-1.8,1.8-3.6,2.3-4.9
				c0.3-0.9-0.4-1.8-1.3-1.8h-5c-0.6,0-1.1,0.3-1.3,0.8c-1,2.1-2.4,4.8-4.1,6.1c-0.1,0.1-0.2,0.1-0.3,0.2c0,0,0,0,0,0l0,0
				c-0.3,0.3-0.4,0.6-0.4,1v4.4c0,0.8,0.7,1.5,1.5,1.5h14.2c-3,8.6-7.9,18.8-16.6,27.6c-0.2,0.2-0.3,0.5-0.3,0.8l0,8.7
				c0,1,1.1,1.6,1.9,0.9c8.7-7.7,14.7-16.9,18.9-25.6h22.7c0.4,0,1,0,1,0.9c0,1.5-3.2,5.5-7.4,9.5c-2.1-1.9-4.1-4-5.9-6.2
				c-0.5-0.6-1.3-0.6-1.3-0.6h-9.4c-0.9,0-0.9,0.5-0.8,0.9c3,4.7,6.7,8.7,10.4,11.9c-2.6,1.9-5.1,3.4-7.3,4.2
				c-1.1,0.4-2.6,0.6-3.5,0.6h-2c-1.3,0-1.6,0.7-1.6,1.5v4.1c0,1,0.6,1.3,1.5,1.3h4.7c1.7,0,3.7-0.4,5.4-1.1c2.7-1.1,6.1-3,9.7-5.4
				c5.8,3.9,10,5.5,9,4.9c-0.5-0.3,3.5,1.8,9,1.8h4.4c0.8,0,1.7-0.4,1.7-1.3v-4.7c0-0.9-0.7-1.1-1.3-1.1h-0.7
				c-4.5,0-5.7-0.7-7.5-1.3c-2.5-1.2-4.9-2.5-7.2-4.1c6.9-6.1,12.8-13.4,12.8-19.3c0-2.7-2.6-3.7-5.1-3.7h-28
				c0.7-1.8,1.3-3.6,1.9-5.3h34.6c0.8,0,1.5-0.7,1.5-1.5V266C282.2,265.2,281.5,264.5,280.7,264.5z"/>
		</g>
	</g>
</g>
</svg>
