<?xml version="1.0" encoding="utf-8"?>
<!-- Generator: Adobe Illustrator 21.0.0, SVG Export Plug-In . SVG Version: 6.00 Build 0)  -->
<svg version="1.1" id="Capa_1" xmlns="http://www.w3.org/2000/svg" xmlns:xlink="http://www.w3.org/1999/xlink" x="0px" y="0px"
	 viewBox="0 0 512 512" style="enable-background:new 0 0 512 512;" xml:space="preserve">
<style type="text/css">
	.st0{fill:#00B390;}
</style>
<g>
	<g>
		<path class="st0" d="M126,472.8c0,6.8,5.5,12.4,12.4,12.4h361.3c6.8,0,12.4-5.5,12.4-12.4V39.2c0-6.8-5.5-12.4-12.4-12.4H138.4
			c-6.8,0-12.4,5.5-12.4,12.4c0,6.8,5.5,12.4,12.4,12.4h348.9v408.9H138.4C131.5,460.4,126,466,126,472.8z"/>
		<path class="st0" d="M3.6,257.1L80,333.5c2.4,2.4,5.6,3.6,8.8,3.6c3.2,0,6.3-1.2,8.8-3.6c4.8-4.8,4.8-12.7,0-17.5l-55.2-55.2
			h231.5c6.8,0,12.4-5.5,12.4-12.4c0-6.8-5.5-12.4-12.4-12.4H42.3l55.2-55.3c4.8-4.8,4.8-12.7,0-17.5c-4.8-4.8-12.7-4.8-17.5,0
			L3.6,239.6C-1.2,244.5-1.2,252.3,3.6,257.1z"/>
	</g>
</g>
</svg>
