<?xml version="1.0" encoding="utf-8"?>
<!-- Generator: Adobe Illustrator 21.1.0, SVG Export Plug-In . SVG Version: 6.00 Build 0)  -->
<svg version="1.1" id="图层_1" xmlns="http://www.w3.org/2000/svg" xmlns:xlink="http://www.w3.org/1999/xlink" x="0px" y="0px"
	 viewBox="0 0 200 200" style="enable-background:new 0 0 200 200;" xml:space="preserve">
<style type="text/css">
	.st0{fill:#00B390;}
</style>
<path class="st0" d="M149.5,93.1l-24.4,24.4l-8.1-8.1c-1.5-1.5-3.9-1.5-5.4,0c-1.5,1.5-1.5,3.9,0,5.4l10.8,10.8
	c1.5,1.5,3.9,1.5,5.4,0l27.1-27.1c1.5-1.5,1.5-3.9,0-5.4C153.4,91.6,151,91.6,149.5,93.1z M187.9,160.9l-24-24
	c7.2-7.6,11.6-17.8,11.6-29c0-23.3-18.9-42.2-42.2-42.2c-23.3,0-42.2,18.9-42.2,42.2s18.9,42.2,42.2,42.2c9.3,0,17.8-3,24.8-8.1
	l24.4,24.4c1.5,1.5,3.9,1.5,5.4,0C189.4,164.8,189.4,162.4,187.9,160.9z M133.2,142.3c-19.1,0-34.5-15.5-34.5-34.5
	s15.5-34.5,34.5-34.5c19.1,0,34.5,15.5,34.5,34.5S152.3,142.3,133.2,142.3z M45,161.5c0,2.1,1.7,3.8,3.8,3.8h69
	c2.1,0,3.8-1.7,3.8-3.8c0-2.1-1.7-3.8-3.8-3.8h-69C46.7,157.7,45,159.4,45,161.5z M48.9,127c-2.1,0-3.8,1.7-3.8,3.8s1.7,3.8,3.8,3.8
	h42.4c-1.6-2.4-2.9-5-4.1-7.7L48.9,127L48.9,127z M48.9,104h34.7c0.2-2.6,0.6-5.1,1.2-7.7H48.9c-2.1,0-3.8,1.7-3.8,3.8
	S46.7,104,48.9,104z M152.2,192.2H33.5c-6.4,0-11.5-5.2-11.5-11.5V19.6c0-6.4,5.2-11.5,11.5-11.5h95.9v38.4h38.4v25.4
	c2.9,2.8,5.5,6,7.7,9.4V46.5l-46-46H29.7c-8.5,0-15.3,6.9-15.3,15.3v168.7c0,8.5,6.9,15.3,15.3,15.3h122.5c2.1,0,3.8-1.7,3.8-3.8
	C156.1,193.9,154.3,192.2,152.2,192.2z M137.1,19.6l19.2,19.2h-19.2V19.6z M167.8,180.7c0,6.4-5.2,11.5-11.5,11.5h-11.5
	c-2.1,0-3.8,1.7-3.8,3.8s1.7,3.8,3.8,3.8h15.3c8.5,0,15.3-6.9,15.3-15.3v-14.4l-7.7-7.7L167.8,180.7L167.8,180.7z M175.4,134.3
	c-0.4,0.7-0.9,1.3-1.4,1.9l1.4,1.4V134.3z M106.7,65.6H48.9c-2.1,0-3.8,1.7-3.8,3.8s1.7,3.8,3.8,3.8h48.4
	C100.1,70.4,103.3,67.8,106.7,65.6z M129.4,192.2h-7.7c-2.1,0-3.8,1.7-3.8,3.8s1.7,3.8,3.8,3.8h7.7c2.1,0,3.8-1.7,3.8-3.8
	S131.5,192.2,129.4,192.2z M121.7,38.8c0-2.1-1.7-3.8-3.8-3.8h-69c-2.1,0-3.8,1.7-3.8,3.8c0,2.1,1.7,3.8,3.8,3.8h69
	C120,42.6,121.7,40.9,121.7,38.8z"/>
</svg>
