<?xml version="1.0" encoding="iso-8859-1"?>
<!-- Generator: Adobe Illustrator 19.0.0, SVG Export Plug-In . SVG Version: 6.00 Build 0)  -->
<svg xmlns="http://www.w3.org/2000/svg" xmlns:xlink="http://www.w3.org/1999/xlink" version="1.1" id="Layer_1" x="0px" y="0px" viewBox="0 0 512 512" style="enable-background:new 0 0 512 512;" xml:space="preserve" width="512px" height="512px">
<g>
	<g>
		<path d="M393.482,341.333c-47.053,0-85.333,38.28-85.333,85.333S346.428,512,393.482,512c47.053,0,85.333-38.28,85.333-85.333    S440.535,341.333,393.482,341.333z M393.482,493.037c-36.597,0-66.37-29.773-66.37-66.37c0-36.597,29.773-66.37,66.37-66.37    c36.597,0,66.37,29.773,66.37,66.37C459.852,463.264,430.079,493.037,393.482,493.037z" fill="#010101"/>
	</g>
</g>
<g>
	<g>
		<path d="M431.407,417.185h-28.444v-28.444c0-5.236-4.245-9.481-9.481-9.481S384,383.505,384,388.741v28.444h-28.444    c-5.236,0-9.481,4.245-9.481,9.482s4.245,9.481,9.481,9.481H384v28.444c0,5.236,4.245,9.482,9.482,9.482s9.481-4.245,9.481-9.482    v-28.444h28.444c5.236,0,9.482-4.245,9.482-9.481S436.644,417.185,431.407,417.185z" fill="#010101"/>
	</g>
</g>
<g>
	<g>
		<path d="M384,0H42.667c-5.236,0-9.482,4.245-9.482,9.482v474.074c0,3.417,1.838,6.567,4.81,8.25    c2.97,1.685,6.618,1.639,9.549-0.12l41.942-25.164l32.824,24.62c3.088,2.315,7.264,2.528,10.567,0.544l41.942-25.164l32.824,24.62    c1.681,1.259,3.68,1.896,5.69,1.896c1.683,0,3.373-0.447,4.877-1.352l47.407-28.444c4.491-2.694,5.947-8.519,3.252-13.007    c-2.692-4.489-8.519-5.947-13.007-3.252l-41.942,25.164l-32.824-24.62c-3.088-2.315-7.268-2.53-10.567-0.544l-41.942,25.164    l-32.824-24.62c-3.09-2.315-7.268-2.53-10.567-0.544L52.148,466.81V18.963h322.37v293.926c0,5.236,4.245,9.481,9.482,9.481    s9.482-4.245,9.482-9.481V9.482C393.482,4.245,389.236,0,384,0z" fill="#010101"/>
	</g>
</g>
<g>
	<g>
		<path d="M137.482,85.333H90.074c-5.236,0-9.482,4.245-9.482,9.482s4.245,9.482,9.482,9.482h47.407    c5.236,0,9.481-4.245,9.481-9.482S142.718,85.333,137.482,85.333z" fill="#010101"/>
	</g>
</g>
<g>
	<g>
		<path d="M317.63,132.741h-47.407c-5.236,0-9.482,4.245-9.482,9.482s4.245,9.481,9.482,9.481h47.407    c5.236,0,9.481-4.245,9.481-9.481S322.866,132.741,317.63,132.741z" fill="#010101"/>
	</g>
</g>
<g>
	<g>
		<path d="M317.63,180.148h-47.407c-5.236,0-9.482,4.245-9.482,9.482s4.245,9.481,9.482,9.481h47.407    c5.236,0,9.481-4.245,9.481-9.481S322.866,180.148,317.63,180.148z" fill="#010101"/>
	</g>
</g>
<g>
	<g>
		<path d="M317.63,227.556h-47.407c-5.236,0-9.482,4.245-9.482,9.482s4.245,9.481,9.482,9.481h47.407    c5.236,0,9.481-4.245,9.481-9.481S322.866,227.556,317.63,227.556z" fill="#010101"/>
	</g>
</g>
<g>
	<g>
		<path d="M317.63,274.963h-47.407c-5.236,0-9.482,4.245-9.482,9.482s4.245,9.481,9.482,9.481h47.407    c5.236,0,9.481-4.245,9.481-9.481S322.866,274.963,317.63,274.963z" fill="#010101"/>
	</g>
</g>
<g>
	<g>
		<path d="M317.63,322.37h-47.407c-5.236,0-9.482,4.245-9.482,9.482s4.245,9.481,9.482,9.481h47.407    c5.236,0,9.481-4.245,9.481-9.481S322.866,322.37,317.63,322.37z" fill="#010101"/>
	</g>
</g>
<g>
	<g>
		<path d="M222.815,132.741H90.074c-5.236,0-9.482,4.245-9.482,9.482s4.245,9.481,9.482,9.481h132.741    c5.236,0,9.481-4.245,9.481-9.481S228.051,132.741,222.815,132.741z" fill="#010101"/>
	</g>
</g>
<g>
	<g>
		<path d="M222.815,180.148H90.074c-5.236,0-9.482,4.245-9.482,9.482s4.245,9.481,9.482,9.481h132.741    c5.236,0,9.481-4.245,9.481-9.481S228.051,180.148,222.815,180.148z" fill="#010101"/>
	</g>
</g>
<g>
	<g>
		<path d="M222.815,227.556H90.074c-5.236,0-9.482,4.245-9.482,9.482s4.245,9.481,9.482,9.481h132.741    c5.236,0,9.481-4.245,9.481-9.481S228.051,227.556,222.815,227.556z" fill="#010101"/>
	</g>
</g>
<g>
	<g>
		<path d="M222.815,274.963H90.074c-5.236,0-9.482,4.245-9.482,9.482s4.245,9.481,9.482,9.481h132.741    c5.236,0,9.481-4.245,9.481-9.481S228.051,274.963,222.815,274.963z" fill="#010101"/>
	</g>
</g>
<g>
	<g>
		<path d="M222.815,322.37H90.074c-5.236,0-9.482,4.245-9.482,9.482s4.245,9.481,9.482,9.481h132.741    c5.236,0,9.481-4.245,9.481-9.481S228.051,322.37,222.815,322.37z" fill="#010101"/>
	</g>
</g>
<g>
</g>
<g>
</g>
<g>
</g>
<g>
</g>
<g>
</g>
<g>
</g>
<g>
</g>
<g>
</g>
<g>
</g>
<g>
</g>
<g>
</g>
<g>
</g>
<g>
</g>
<g>
</g>
<g>
</g>
</svg>
