<?xml version="1.0" encoding="iso-8859-1"?>
<!-- Generator: Adobe Illustrator 19.0.0, SVG Export Plug-In . SVG Version: 6.00 Build 0)  -->
<svg xmlns="http://www.w3.org/2000/svg" xmlns:xlink="http://www.w3.org/1999/xlink" version="1.1" id="Layer_1" x="0px" y="0px" viewBox="0 0 512 512" style="enable-background:new 0 0 512 512;" xml:space="preserve" width="512px" height="512px">
<g>
	<g>
		<path d="M388.741,341.333c-47.053,0-85.333,38.28-85.333,85.333S341.687,512,388.741,512s85.333-38.28,85.333-85.333    S435.794,341.333,388.741,341.333z M388.741,493.037c-36.597,0-66.37-29.773-66.37-66.37c0-36.597,29.773-66.37,66.37-66.37    c36.597,0,66.37,29.773,66.37,66.37C455.111,463.264,425.338,493.037,388.741,493.037z" fill="#010101"/>
	</g>
</g>
<g>
	<g>
		<path d="M402.147,426.665l20.114-20.115c3.704-3.701,3.704-9.706,0-13.407c-3.699-3.704-9.708-3.704-13.407,0l-20.114,20.114    l-20.115-20.114c-3.699-3.704-9.708-3.704-13.407,0c-3.704,3.701-3.704,9.706,0,13.407l20.115,20.115l-20.115,20.114    c-3.704,3.701-3.704,9.706,0,13.407c1.85,1.852,4.278,2.778,6.704,2.778c2.426,0,4.854-0.926,6.704-2.778l20.114-20.114    l20.115,20.114c1.85,1.852,4.278,2.778,6.704,2.778s4.854-0.926,6.704-2.778c3.704-3.701,3.704-9.706,0-13.407L402.147,426.665z" fill="#010101"/>
	</g>
</g>
<g>
	<g>
		<path d="M388.741,0H47.407c-5.236,0-9.482,4.245-9.482,9.482v474.074c0,3.417,1.838,6.567,4.81,8.25    c2.97,1.685,6.618,1.639,9.549-0.12l41.942-25.164l32.824,24.62c3.086,2.315,7.264,2.528,10.567,0.544l41.942-25.164l32.824,24.62    c1.681,1.259,3.68,1.896,5.69,1.896c1.683,0,3.373-0.447,4.877-1.352l47.407-28.444c4.491-2.694,5.947-8.519,3.252-13.007    c-2.692-4.489-8.519-5.947-13.007-3.252l-41.942,25.164l-32.824-24.62c-3.09-2.315-7.266-2.53-10.567-0.544l-41.942,25.164    l-32.824-24.62c-3.09-2.315-7.266-2.53-10.567-0.544L56.889,466.81V18.963h322.37v293.926c0,5.236,4.245,9.481,9.481,9.481    s9.482-4.245,9.482-9.481V9.482C398.222,4.245,393.977,0,388.741,0z" fill="#010101"/>
	</g>
</g>
<g>
	<g>
		<path d="M142.222,85.333H94.815c-5.236,0-9.482,4.245-9.482,9.482s4.245,9.482,9.482,9.482h47.407    c5.236,0,9.481-4.245,9.481-9.482S147.458,85.333,142.222,85.333z" fill="#010101"/>
	</g>
</g>
<g>
	<g>
		<path d="M322.37,132.741h-47.407c-5.236,0-9.481,4.245-9.481,9.482s4.245,9.481,9.481,9.481h47.407    c5.236,0,9.482-4.245,9.482-9.481S327.607,132.741,322.37,132.741z" fill="#010101"/>
	</g>
</g>
<g>
	<g>
		<path d="M322.37,180.148h-47.407c-5.236,0-9.481,4.245-9.481,9.482s4.245,9.481,9.481,9.481h47.407    c5.236,0,9.482-4.245,9.482-9.481S327.607,180.148,322.37,180.148z" fill="#010101"/>
	</g>
</g>
<g>
	<g>
		<path d="M322.37,227.556h-47.407c-5.236,0-9.481,4.245-9.481,9.482s4.245,9.481,9.481,9.481h47.407    c5.236,0,9.482-4.245,9.482-9.481S327.607,227.556,322.37,227.556z" fill="#010101"/>
	</g>
</g>
<g>
	<g>
		<path d="M322.37,274.963h-47.407c-5.236,0-9.481,4.245-9.481,9.482s4.245,9.481,9.481,9.481h47.407    c5.236,0,9.482-4.245,9.482-9.481S327.607,274.963,322.37,274.963z" fill="#010101"/>
	</g>
</g>
<g>
	<g>
		<path d="M322.37,322.37h-47.407c-5.236,0-9.481,4.245-9.481,9.482s4.245,9.481,9.481,9.481h47.407    c5.236,0,9.482-4.245,9.482-9.481S327.607,322.37,322.37,322.37z" fill="#010101"/>
	</g>
</g>
<g>
	<g>
		<path d="M227.556,132.741H94.815c-5.236,0-9.482,4.245-9.482,9.482s4.245,9.481,9.482,9.481h132.741    c5.236,0,9.482-4.245,9.482-9.481S232.792,132.741,227.556,132.741z" fill="#010101"/>
	</g>
</g>
<g>
	<g>
		<path d="M227.556,180.148H94.815c-5.236,0-9.482,4.245-9.482,9.482s4.245,9.481,9.482,9.481h132.741    c5.236,0,9.482-4.245,9.482-9.481S232.792,180.148,227.556,180.148z" fill="#010101"/>
	</g>
</g>
<g>
	<g>
		<path d="M227.556,227.556H94.815c-5.236,0-9.482,4.245-9.482,9.482s4.245,9.481,9.482,9.481h132.741    c5.236,0,9.482-4.245,9.482-9.481S232.792,227.556,227.556,227.556z" fill="#010101"/>
	</g>
</g>
<g>
	<g>
		<path d="M227.556,274.963H94.815c-5.236,0-9.482,4.245-9.482,9.482s4.245,9.481,9.482,9.481h132.741    c5.236,0,9.482-4.245,9.482-9.481S232.792,274.963,227.556,274.963z" fill="#010101"/>
	</g>
</g>
<g>
	<g>
		<path d="M227.556,322.37H94.815c-5.236,0-9.482,4.245-9.482,9.482s4.245,9.481,9.482,9.481h132.741    c5.236,0,9.482-4.245,9.482-9.481S232.792,322.37,227.556,322.37z" fill="#010101"/>
	</g>
</g>
<g>
</g>
<g>
</g>
<g>
</g>
<g>
</g>
<g>
</g>
<g>
</g>
<g>
</g>
<g>
</g>
<g>
</g>
<g>
</g>
<g>
</g>
<g>
</g>
<g>
</g>
<g>
</g>
<g>
</g>
</svg>
