<?xml version="1.0" standalone="no"?><!DOCTYPE svg PUBLIC "-//W3C//DTD SVG 1.1//EN" "http://www.w3.org/Graphics/SVG/1.1/DTD/svg11.dtd"><svg t="1507859328636" class="icon" style="" viewBox="0 0 1024 1024" version="1.1" xmlns="http://www.w3.org/2000/svg" p-id="6212" xmlns:xlink="http://www.w3.org/1999/xlink" width="180" height="180"><defs><style type="text/css"></style></defs><path d="M191.841771 639.919415l638.404921 0 0 63.733557-638.404921 0 0-63.733557Z" p-id="6213" fill="#00b390"></path><path d="M192.183556 447.815165l319.202972 0 0 63.733557-319.202972 0 0-63.733557Z" p-id="6214" fill="#00b390"></path><path d="M849.69258 895.260917 173.913447 895.260917c-60.567447 0-109.841687-48.588625-109.841687-108.313891L64.071759 236.449223c0-59.72322 49.27424-108.312868 109.841687-108.312868l675.779134 0c60.566424 0 109.840664 48.588625 109.840664 108.312868l0 550.498826C959.533244 846.672292 910.257981 895.260917 849.69258 895.260917zM173.913447 191.870936c-25.423019 0-46.107107 19.99745-46.107107 44.578288l0 550.498826c0 24.580838 20.683065 44.578288 46.107107 44.578288l675.779134 0c25.423019 0 46.106084-19.99745 46.106084-44.578288L895.798665 236.449223c0-24.580838-20.683065-44.578288-46.106084-44.578288L173.913447 191.870936z" p-id="6215" fill="#00b390"></path><path d="M639.517767 319.858912l128.015605 0 0 128.015605-128.015605 0 0-128.015605Z" p-id="6216" fill="#00b390"></path></svg>